<svg xmlns="http://www.w3.org/2000/svg" viewBox="0 0 4155.0 4342.0" role="img" aria-label="Y"><g transform="translate(102.0, 4244.0) scale(1,-1)"><path d="M3831.5 712C3795.8333282470703 738.6666717529297 3757.0 756.0 3715.0 764.0L3729.0 795.0C3771.0 893.6666717529297 3800.3333282470703 996.3333282470703 3817.0 1103.0C3847.6666717529297 1109.6666717529297 3875.8333282470703 1123.3333282470703 3901.5 1144.0C3927.1666717529297 1164.6666717529297 3948.0 1190.6666717529297 3964.0 1222.0C3996.6666717529297 1285.3333282470703 4013.0 1358.3333282470703 4013.0 1441.0C4013.0 1451.6666717529297 4012.3333282470703 1467.6666717529297 4011.0 1489.0C3996.3333282470703 1691.6666717529297 3921.6666717529297 1908.6666717529297 3787.0 2140.0C3691.0 2306.0 3620.0 2432.6666717529297 3574.0 2520.0C3604.0 2491.3333282470703 3636.8333282470703 2469.0 3672.5 2453.0C3708.1666717529297 2437.0 3744.6666717529297 2429.0 3782.0 2429.0C3794.6666717529297 2429.0 3807.6666717529297 2430.0 3821.0 2432.0C3857.0 2438.0 3889.6666717529297 2451.0 3919.0 2471.0C3948.3333282470703 2491.0 3971.3333282470703 2516.0 3988.0 2546.0C4004.6666717529297 2576.0 4013.0 2607.6666717529297 4013.0 2641.0C4013.0 2674.3333282470703 4005.3333282470703 2704.6666717529297 3990.0 2732.0C3974.6666717529297 2759.3333282470703 3954.3333282470703 2780.8333282470703 3929.0 2796.5C3903.6666717529297 2812.1666717529297 3876.6666717529297 2820.0 3848.0 2820.0C3829.3333282470703 2820.0 3813.0 2817.3333282470703 3799.0 2812.0C3775.0 2804.6666717529297 3755.8333282470703 2791.8333282470703 3741.5 2773.5C3727.1666717529297 2755.1666717529297 3720.0 2734.3333282470703 3720.0 2711.0C3720.0 2686.3333282470703 3726.5 2665.3333282470703 3739.5 2648.0C3752.5 2630.6666717529297 3769.0 2622.0 3789.0 2622.0H3790.0C3802.0 2622.0 3812.3333282470703 2626.3333282470703 3821.0 2635.0C3829.6666717529297 2643.6666717529297 3834.0 2654.3333282470703 3834.0 2667.0C3834.0 2675.0 3832.0 2682.3333282470703 3828.0 2689.0C3824.0 2695.6666717529297 3818.5 2701.0 3811.5 2705.0C3804.5 2709.0 3797.0 2711.0 3789.0 2711.0C3780.3333282470703 2711.0 3772.3333282470703 2708.5 3765.0 2703.5C3757.6666717529297 2698.5 3752.3333282470703 2692.0 3749.0 2684.0C3746.3333282470703 2691.3333282470703 3745.0 2700.3333282470703 3745.0 2711.0C3745.0 2727.0 3750.0 2742.0 3760.0 2756.0C3770.0 2770.0 3783.0 2780.6666717529297 3799.0 2788.0C3814.3333282470703 2794.6666717529297 3830.3333282470703 2798.0 3847.0 2798.0C3871.0 2798.0 3893.8333282470703 2791.1666717529297 3915.5 2777.5C3937.1666717529297 2763.8333282470703 3954.6666717529297 2745.3333282470703 3968.0 2722.0C3981.3333282470703 2698.6666717529297 3988.0 2672.6666717529297 3988.0 2644.0C3988.0 2598.6666717529297 3972.3333282470703 2558.5 3941.0 2523.5C3909.6666717529297 2488.5 3869.6666717529297 2466.3333282470703 3821.0 2457.0C3803.6666717529297 2454.3333282470703 3790.3333282470703 2453.0 3781.0 2453.0C3730.3333282470703 2453.0 3681.8333282470703 2468.8333282470703 3635.5 2500.5C3589.1666717529297 2532.1666717529297 3551.0 2574.6666717529297 3521.0 2628.0C3498.3333282470703 2690.0 3487.0 2753.6666717529297 3487.0 2819.0C3487.0 2875.6666717529297 3496.0 2929.0 3514.0 2979.0C3532.6666717529297 3028.3333282470703 3561.3333282470703 3068.0 3600.0 3098.0C3638.6666717529297 3128.0 3682.6666717529297 3143.0 3732.0 3143.0C3744.0 3143.0 3754.8333282470703 3139.5 3764.5 3132.5C3774.1666717529297 3125.5 3780.6666717529297 3116.6666717529297 3784.0 3106.0C3774.0 3109.3333282470703 3764.6666717529297 3111.0 3756.0 3111.0C3734.6666717529297 3111.0 3716.6666717529297 3103.6666717529297 3702.0 3089.0C3687.3333282470703 3074.3333282470703 3680.0 3056.6666717529297 3680.0 3036.0C3680.0 3021.3333282470703 3683.3333282470703 3008.6666717529297 3690.0 2998.0C3696.6666717529297 2986.0 3705.8333282470703 2976.6666717529297 3717.5 2970.0C3729.1666717529297 2963.3333282470703 3742.0 2960.0 3756.0 2960.0H3757.0C3787.0 2960.6666717529297 3811.0 2975.5 3829.0 3004.5C3847.0 3033.5 3856.0 3069.0 3856.0 3111.0C3856.0 3150.3333282470703 3843.0 3182.3333282470703 3817.0 3207.0C3781.6666717529297 3240.3333282470703 3735.3333282470703 3257.0 3678.0 3257.0C3645.3333282470703 3257.0 3612.6666717529297 3252.3333282470703 3580.0 3243.0C3529.3333282470703 3229.0 3473.1666717529297 3199.3333282470703 3411.5 3154.0C3349.8333282470703 3108.6666717529297 3287.6666717529297 3051.6666717529297 3225.0 2983.0C3088.3333282470703 2833.0 3003.3333282470703 2675.3333282470703 2970.0 2510.0C2958.6666717529297 2457.3333282470703 2953.0 2404.0 2953.0 2350.0C2953.0 2253.3333282470703 2972.3333282470703 2156.0 3011.0 2058.0C3031.6666717529297 2006.0 3055.0 1955.8333282470703 3081.0 1907.5C3107.0 1859.1666717529297 3140.3333282470703 1801.6666717529297 3181.0 1735.0L3193.0 1715.0C3273.6666717529297 1577.6666717529297 3328.0 1459.3333282470703 3356.0 1360.0C3376.0 1292.6666717529297 3386.0 1220.3333282470703 3386.0 1143.0C3386.0 1061.6666717529297 3374.6666717529297 981.3333282470703 3352.0 902.0C3335.3333282470703 844.6666717529297 3311.3333282470703 789.1666717529297 3280.0 735.5C3248.6666717529297 681.8333282470703 3211.6666717529297 633.0 3169.0 589.0C3163.6666717529297 625.6666717529297 3159.5 661.1666717529297 3156.5 695.5C3153.5 729.8333282470703 3151.3333282470703 773.0 3150.0 825.0C3147.3333282470703 890.3333282470703 3145.8333282470703 946.1666717529297 3145.5 992.5C3145.1666717529297 1038.8333282470703 3145.0 1093.0 3145.0 1155.0C3148.3333282470703 1188.3333282470703 3150.0 1218.6666717529297 3150.0 1246.0C3150.0 1306.6666717529297 3143.3333282470703 1367.3333282470703 3130.0 1428.0C3092.0 1600.6666717529297 3008.6666717529297 1752.0 2880.0 1882.0C2832.6666717529297 1929.3333282470703 2782.6666717529297 1971.0 2730.0 2007.0C2732.0 2063.6666717529297 2721.3333282470703 2117.3333282470703 2698.0 2168.0C2683.3333282470703 2199.3333282470703 2664.5 2226.6666717529297 2641.5 2250.0C2618.5 2273.3333282470703 2592.6666717529297 2291.6666717529297 2564.0 2305.0C2697.3333282470703 2492.3333282470703 2802.0 2692.6666717529297 2878.0 2906.0C2893.3333282470703 2950.0 2902.6666717529297 2976.6666717529297 2906.0 2986.0C2914.0 3009.3333282470703 2920.8333282470703 3028.8333282470703 2926.5 3044.5C2932.1666717529297 3060.1666717529297 2936.6666717529297 3073.0 2940.0 3083.0C2953.3333282470703 3120.3333282470703 2970.8333282470703 3167.3333282470703 2992.5 3224.0C3014.1666717529297 3280.6666717529297 3034.3333282470703 3330.3333282470703 3053.0 3373.0C3096.3333282470703 3351.0 3139.6666717529297 3331.0 3183.0 3313.0C3219.6666717529297 3297.6666717529297 3253.5 3285.8333282470703 3284.5 3277.5C3315.5 3269.1666717529297 3350.6666717529297 3262.0 3390.0 3256.0C3413.3333282470703 3252.6666717529297 3434.3333282470703 3251.0 3453.0 3251.0C3503.6666717529297 3251.0 3552.3333282470703 3260.0 3599.0 3278.0C3639.0 3292.6666717529297 3675.6666717529297 3313.6666717529297 3709.0 3341.0C3742.3333282470703 3368.3333282470703 3770.0 3400.3333282470703 3792.0 3437.0C3806.6666717529297 3461.6666717529297 3817.8333282470703 3488.0 3825.5 3516.0C3833.1666717529297 3544.0 3837.0 3572.0 3837.0 3600.0C3837.0 3630.0 3833.3333282470703 3656.3333282470703 3826.0 3679.0C3814.0 3719.0 3793.6666717529297 3751.1666717529297 3765.0 3775.5C3736.3333282470703 3799.8333282470703 3703.3333282470703 3812.0 3666.0 3812.0C3616.0 3812.0 3574.0 3802.0 3540.0 3782.0C3506.0 3762.0 3488.6666717529297 3734.6666717529297 3488.0 3700.0V3699.0C3488.0 3674.3333282470703 3496.6666717529297 3653.3333282470703 3514.0 3636.0C3531.3333282470703 3618.6666717529297 3552.3333282470703 3610.0 3577.0 3610.0C3601.6666717529297 3610.0 3622.6666717529297 3618.6666717529297 3640.0 3636.0C3657.3333282470703 3653.3333282470703 3666.0 3674.3333282470703 3666.0 3699.0C3666.0 3717.6666717529297 3660.5 3734.6666717529297 3649.5 3750.0C3638.5 3765.3333282470703 3624.3333282470703 3776.3333282470703 3607.0 3783.0C3627.0 3786.3333282470703 3646.6666717529297 3788.0 3666.0 3788.0C3691.3333282470703 3788.0 3715.1666717529297 3781.3333282470703 3737.5 3768.0C3759.8333282470703 3754.6666717529297 3777.3333282470703 3737.0 3790.0 3715.0C3808.0 3681.0 3817.0 3646.3333282470703 3817.0 3611.0C3817.0 3593.6666717529297 3814.3333282470703 3575.3333282470703 3809.0 3556.0C3795.6666717529297 3506.0 3769.6666717529297 3465.5 3731.0 3434.5C3692.3333282470703 3403.5 3648.3333282470703 3388.3333282470703 3599.0 3389.0C3581.0 3389.0 3460.6666717529297 3478.3333282470703 3238.0 3657.0C3224.6666717529297 3667.6666717529297 3214.3333282470703 3675.3333282470703 3207.0 3680.0C3222.3333282470703 3704.0 3236.3333282470703 3725.0 3249.0 3743.0C3333.0 3855.0 3404.3333282470703 3929.6666717529297 3463.0 3967.0C3505.0 3993.0 3549.6666717529297 4014.0 3597.0 4030.0C3644.3333282470703 4046.0 3692.3333282470703 4054.0 3741.0 4054.0C3777.6666717529297 4054.0 3811.3333282470703 4048.1666717529297 3842.0 4036.5C3872.6666717529297 4024.8333282470703 3897.0 4008.1666717529297 3915.0 3986.5C3933.0 3964.8333282470703 3942.0 3939.6666717529297 3942.0 3911.0C3942.0 3897.6666717529297 3940.6666717529297 3886.6666717529297 3938.0 3878.0C3934.0 3888.0 3927.5 3896.0 3918.5 3902.0C3909.5 3908.0 3899.6666717529297 3911.0 3889.0 3911.0C3874.3333282470703 3911.0 3861.8333282470703 3905.8333282470703 3851.5 3895.5C3841.1666717529297 3885.1666717529297 3836.0 3872.6666717529297 3836.0 3858.0C3836.0 3843.3333282470703 3841.1666717529297 3830.8333282470703 3851.5 3820.5C3861.8333282470703 3810.1666717529297 3874.3333282470703 3805.0 3889.0 3805.0V3804.0C3894.3333282470703 3804.0 3901.0 3805.3333282470703 3909.0 3808.0C3927.0 3814.0 3941.1666717529297 3826.5 3951.5 3845.5C3961.8333282470703 3864.5 3967.0 3886.3333282470703 3967.0 3911.0C3967.0 3946.3333282470703 3955.6666717529297 3976.6666717529297 3933.0 4002.0C3911.0 4027.3333282470703 3882.5 4046.5 3847.5 4059.5C3812.5 4072.5 3774.0 4079.0 3732.0 4079.0C3680.0 4079.0 3631.0 4070.6666717529297 3585.0 4054.0C3534.3333282470703 4036.6666717529297 3490.1666717529297 4015.8333282470703 3452.5 3991.5C3414.8333282470703 3967.1666717529297 3377.0 3934.0 3339.0 3892.0C3303.6666717529297 3852.6666717529297 3275.0 3818.8333282470703 3253.0 3790.5C3231.0 3762.1666717529297 3209.0 3729.6666717529297 3187.0 3693.0C3153.0 3713.6666717529297 3117.3333282470703 3729.3333282470703 3080.0 3740.0C3030.0 3755.3333282470703 2977.6666717529297 3763.0 2923.0 3763.0C2877.0 3763.0 2827.6666717529297 3757.3333282470703 2775.0 3746.0C2769.6666717529297 3848.6666717529297 2767.0 3918.6666717529297 2767.0 3956.0C2767.0 3970.0 2773.6666717529297 3979.3333282470703 2787.0 3984.0C2789.6666717529297 3984.6666717529297 2794.0 3985.0 2800.0 3985.0C2808.0 3985.0 2819.6666717529297 3983.3333282470703 2835.0 3980.0C2853.6666717529297 3975.3333282470703 2873.0 3967.3333282470703 2893.0 3956.0C2915.0 3945.3333282470703 2938.6666717529297 3940.0 2964.0 3940.0C2999.3333282470703 3940.0 3031.6666717529297 3950.3333282470703 3061.0 3971.0C3161.6666717529297 4041.6666717529297 3215.3333282470703 4077.0 3222.0 4077.0V4101.0C3206.6666717529297 4101.0 3191.0 4097.5 3175.0 4090.5C3159.0 4083.5 3137.6666717529297 4073.0 3111.0 4059.0L3090.0 4047.0C3078.0 4041.0 3067.5 4036.5 3058.5 4033.5C3049.5 4030.5 3040.0 4029.0 3030.0 4029.0C3005.3333282470703 4029.0 2971.3333282470703 4040.0 2928.0 4062.0C2910.0 4071.3333282470703 2890.6666717529297 4076.0 2870.0 4076.0C2846.6666717529297 4076.0 2824.6666717529297 4070.3333282470703 2804.0 4059.0C2785.3333282470703 4049.0 2770.5 4034.6666717529297 2759.5 4016.0C2748.5 3997.3333282470703 2743.0 3977.3333282470703 2743.0 3956.0C2743.0 3912.0 2746.0 3840.3333282470703 2752.0 3741.0L2723.0 3733.0C2641.0 3710.3333282470703 2558.3333282470703 3677.0 2475.0 3633.0C2463.0 3660.3333282470703 2453.3333282470703 3687.6666717529297 2446.0 3715.0C2437.3333282470703 3748.3333282470703 2430.8333282470703 3778.1666717529297 2426.5 3804.5C2422.1666717529297 3830.8333282470703 2419.0 3862.6666717529297 2417.0 3900.0C2415.0 3936.0 2413.6666717529297 3967.5 2413.0 3994.5C2412.3333282470703 4021.5 2412.0 4053.0 2412.0 4089.0C2412.0 4103.0 2413.3333282470703 4115.0 2416.0 4125.0C2420.6666717529297 4114.33332824707 2427.8333282470703 4105.66667175293 2437.5 4099.0C2447.1666717529297 4092.3333282470703 2458.0 4089.0 2470.0 4089.0C2486.0 4089.0 2499.6666717529297 4094.6666717529297 2511.0 4106.0C2522.3333282470703 4117.33332824707 2528.0 4131.0 2528.0 4147.0C2528.0 4163.0 2522.3333282470703 4176.5 2511.0 4187.5C2499.6666717529297 4198.5 2486.0 4204.0 2470.0 4204.0H2464.0H2463.0C2440.3333282470703 4201.33332824707 2422.0 4189.16667175293 2408.0 4167.5C2394.0 4145.83332824707 2387.0 4119.66667175293 2387.0 4089.0C2387.0 4033.0 2387.5 3990.3333282470703 2388.5 3961.0C2389.5 3931.6666717529297 2392.0 3894.6666717529297 2396.0 3850.0C2398.6666717529297 3816.6666717529297 2403.3333282470703 3783.0 2410.0 3749.0C2384.0 3790.3333282470703 2355.0 3829.3333282470703 2323.0 3866.0C2261.6666717529297 3936.6666717529297 2193.0 3996.1666717529297 2117.0 4044.5C2041.0 4092.8333282470703 1960.3333282470703 4129.66667175293 1875.0 4155.0C1806.3333282470703 4175.66667175293 1734.0 4186.0 1658.0 4186.0C1570.6666717529297 4186.0 1484.3333282470703 4171.0 1399.0 4141.0C1394.3333282470703 4148.33332824707 1388.1666717529297 4154.0 1380.5 4158.0C1372.8333282470703 4162.0 1364.6666717529297 4164.0 1356.0 4164.0C1341.3333282470703 4164.0 1329.0 4159.0 1319.0 4149.0C1308.3333282470703 4138.33332824707 1303.0 4125.66667175293 1303.0 4111.0C1303.0 4106.33332824707 1303.3333282470703 4102.66667175293 1304.0 4100.0C1163.3333282470703 4031.3333282470703 1046.3333282470703 3940.0 953.0 3826.0L941.0 3811.0C924.3333282470703 3801.6666717529297 898.6666717529297 3789.0 864.0 3773.0C882.0 3794.3333282470703 895.0 3814.0 903.0 3832.0C918.3333282470703 3863.3333282470703 926.0 3898.6666717529297 926.0 3938.0C926.0 3978.0 917.6666717529297 4015.0 901.0 4049.0L878.0 4040.0C901.3333282470703 3993.3333282470703 913.0 3954.3333282470703 913.0 3923.0C913.0 3891.6666717529297 900.6666717529297 3869.6666717529297 876.0 3857.0C869.3333282470703 3853.6666717529297 862.6666717529297 3852.0 856.0 3852.0C844.6666717529297 3851.3333282470703 828.6666717529297 3855.3333282470703 808.0 3864.0C795.3333282470703 3869.3333282470703 779.0 3879.3333282470703 759.0 3894.0L734.0 3911.0C710.6666717529297 3927.6666717529297 685.0 3940.3333282470703 657.0 3949.0C629.0 3957.6666717529297 600.3333282470703 3962.0 571.0 3962.0C550.3333282470703 3962.0 530.6666717529297 3960.0 512.0 3956.0C427.3333282470703 3939.3333282470703 359.3333282470703 3896.0 308.0 3826.0C266.0 3768.0 245.6666717529297 3704.3333282470703 247.0 3635.0H223.0C193.0 3635.0 166.0 3638.3333282470703 142.0 3645.0C116.0 3651.0 95.16667175292969 3661.8333282470703 79.5 3677.5C63.83332824707031 3693.1666717529297 56.66667175292969 3711.6666717529297 58.0 3733.0C59.33332824707031 3746.3333282470703 93.0 3783.3333282470703 159.0 3844.0C175.0 3858.6666717529297 187.6666717529297 3876.6666717529297 197.0 3898.0C203.6666717529297 3914.0 207.0 3931.0 207.0 3949.0C207.0 3967.6666717529297 202.6666717529297 3986.6666717529297 194.0 4006.0C186.6666717529297 4021.3333282470703 175.6666717529297 4033.6666717529297 161.0 4043.0C146.3333282470703 4052.3333282470703 130.0 4057.0 112.0 4057.0C85.33332824707031 4057.0 62.33332824707031 4050.0 43.0 4036.0C23.666671752929688 4022.0 14.0 4004.3333282470703 14.0 3983.0C14.0 3973.6666717529297 16.333328247070312 3965.6666717529297 21.0 3959.0C25.0 3951.0 30.833328247070312 3944.8333282470703 38.5 3940.5C46.16667175292969 3936.1666717529297 54.33332824707031 3934.0 63.0 3934.0C76.33332824707031 3934.0 87.83332824707031 3938.8333282470703 97.5 3948.5C107.16667175292969 3958.1666717529297 112.0 3969.6666717529297 112.0 3983.0C112.0 3993.0 109.33332824707031 4002.1666717529297 104.0 4010.5C98.66667175292969 4018.8333282470703 91.33332824707031 4024.6666717529297 82.0 4028.0C90.0 4030.6666717529297 100.0 4032.0 112.0 4032.0C122.66667175292969 4032.0 131.3333282470703 4029.0 138.0 4023.0C148.6666717529297 4013.0 154.0 3998.6666717529297 154.0 3980.0C154.0 3974.0 153.6666717529297 3969.3333282470703 153.0 3966.0C151.0 3954.0 146.1666717529297 3941.1666717529297 138.5 3927.5C130.8333282470703 3913.8333282470703 121.33332824707031 3901.0 110.0 3889.0C84.0 3863.0 64.5 3839.0 51.5 3817.0C38.5 3795.0 32.0 3772.6666717529297 32.0 3750.0C32.0 3722.0 40.66667175292969 3697.3333282470703 58.0 3676.0C75.33332824707031 3654.6666717529297 98.5 3638.3333282470703 127.5 3627.0C156.5 3615.6666717529297 188.3333282470703 3610.0 223.0 3610.0H248.0C250.6666717529297 3574.0 259.0 3539.6666717529297 273.0 3507.0C287.0 3474.3333282470703 304.6666717529297 3445.3333282470703 326.0 3420.0C402.6666717529297 3329.3333282470703 523.0 3278.6666717529297 687.0 3268.0C697.6666717529297 3267.3333282470703 714.0 3267.0 736.0 3267.0C758.6666717529297 3267.0 775.6666717529297 3267.3333282470703 787.0 3268.0L785.0 3224.0C779.0 3116.6666717529297 767.3333282470703 3026.0 750.0 2952.0C677.3333282470703 2929.3333282470703 609.3333282470703 2899.0 546.0 2861.0C468.6666717529297 2815.0 401.6666717529297 2758.0 345.0 2690.0C309.0 2712.6666717529297 279.3333282470703 2743.5 256.0 2782.5C232.6666717529297 2821.5 218.3333282470703 2864.3333282470703 213.0 2911.0C211.6666717529297 2925.6666717529297 211.0 2936.3333282470703 211.0 2943.0C211.0 2979.0 217.3333282470703 3012.3333282470703 230.0 3043.0C242.6666717529297 3073.6666717529297 260.6666717529297 3098.0 284.0 3116.0C307.3333282470703 3134.0 334.3333282470703 3143.0 365.0 3143.0C389.6666717529297 3143.0 410.8333282470703 3135.8333282470703 428.5 3121.5C446.1666717529297 3107.1666717529297 455.0 3089.0 455.0 3067.0C455.0 3049.6666717529297 453.6666717529297 3034.6666717529297 451.0 3022.0L446.0 3032.0C439.3333282470703 3042.6666717529297 430.5 3051.1666717529297 419.5 3057.5C408.5 3063.8333282470703 396.6666717529297 3067.0 384.0 3067.0C364.6666717529297 3067.0 348.0 3060.0 334.0 3046.0C320.0 3032.0 313.0 3015.3333282470703 313.0 2996.0C313.0 2976.0 320.0 2959.0 334.0 2945.0C348.0 2931.0 364.6666717529297 2924.0 384.0 2924.0H385.0C413.6666717529297 2924.6666717529297 436.6666717529297 2938.6666717529297 454.0 2966.0C471.3333282470703 2993.3333282470703 480.0 3027.0 480.0 3067.0C480.0 3095.6666717529297 468.6666717529297 3119.6666717529297 446.0 3139.0C423.3333282470703 3158.3333282470703 396.0 3168.0 364.0 3168.0C326.0 3168.0 292.3333282470703 3155.5 263.0 3130.5C233.6666717529297 3105.5 212.6666717529297 3072.6666717529297 200.0 3032.0C191.3333282470703 3004.0 187.0 2973.3333282470703 187.0 2940.0C187.0 2902.6666717529297 193.6666717529297 2865.0 207.0 2827.0C220.3333282470703 2789.0 241.6666717529297 2753.3333282470703 271.0 2720.0C286.3333282470703 2702.0 305.3333282470703 2685.3333282470703 328.0 2670.0C307.3333282470703 2643.3333282470703 289.6666717529297 2617.3333282470703 275.0 2592.0C246.3333282470703 2544.6666717529297 224.5 2493.6666717529297 209.5 2439.0C194.5 2384.3333282470703 187.0 2328.6666717529297 187.0 2272.0C187.0 2261.3333282470703 187.6666717529297 2244.6666717529297 189.0 2222.0C195.6666717529297 2132.0 221.5 2049.1666717529297 266.5 1973.5C311.5 1897.8333282470703 371.3333282470703 1837.3333282470703 446.0 1792.0C501.3333282470703 1757.3333282470703 561.6666717529297 1735.3333282470703 627.0 1726.0C628.3333282470703 1716.6666717529297 631.3333282470703 1708.6666717529297 636.0 1702.0C641.3333282470703 1692.6666717529297 648.8333282470703 1685.1666717529297 658.5 1679.5C668.1666717529297 1673.8333282470703 678.3333282470703 1671.0 689.0 1671.0C705.0 1671.0 718.8333282470703 1676.1666717529297 730.5 1686.5C742.1666717529297 1696.8333282470703 749.0 1709.3333282470703 751.0 1724.0C803.6666717529297 1731.3333282470703 852.0 1745.3333282470703 896.0 1766.0C960.6666717529297 1797.3333282470703 1013.3333282470703 1841.5 1054.0 1898.5C1094.6666717529297 1955.5 1118.0 2019.0 1124.0 2089.0C1124.6666717529297 2095.6666717529297 1125.0 2106.0 1125.0 2120.0C1125.0 2178.6666717529297 1111.6666717529297 2234.0 1085.0 2286.0C1058.3333282470703 2338.0 1021.3333282470703 2381.0 974.0 2415.0C936.6666717529297 2441.6666717529297 898.0 2460.0 858.0 2470.0C857.3333282470703 2485.3333282470703 851.5 2498.1666717529297 840.5 2508.5C829.5 2518.8333282470703 816.3333282470703 2524.0 801.0 2524.0C784.3333282470703 2524.0 770.6666717529297 2518.6666717529297 760.0 2508.0C751.3333282470703 2499.3333282470703 746.0 2489.6666717529297 744.0 2479.0C718.6666717529297 2475.6666717529297 696.3333282470703 2470.6666717529297 677.0 2464.0C637.0 2449.3333282470703 605.0 2426.8333282470703 581.0 2396.5C557.0 2366.1666717529297 545.0 2331.6666717529297 545.0 2293.0L568.0 2285.0C568.0 2320.3333282470703 578.8333282470703 2351.8333282470703 600.5 2379.5C622.1666717529297 2407.1666717529297 651.3333282470703 2427.6666717529297 688.0 2441.0C707.3333282470703 2447.6666717529297 726.0 2452.0 744.0 2454.0C747.3333282470703 2440.6666717529297 754.1666717529297 2429.8333282470703 764.5 2421.5C774.8333282470703 2413.1666717529297 787.0 2409.0 801.0 2409.0C813.0 2409.0 823.8333282470703 2412.3333282470703 833.5 2419.0C843.1666717529297 2425.6666717529297 850.0 2434.3333282470703 854.0 2445.0C891.3333282470703 2435.6666717529297 927.3333282470703 2418.6666717529297 962.0 2394.0C1006.0 2362.6666717529297 1040.0 2323.0 1064.0 2275.0C1088.0 2227.0 1100.0 2175.6666717529297 1100.0 2121.0C1100.0 2107.0 1099.6666717529297 2096.3333282470703 1099.0 2089.0C1093.0 2023.6666717529297 1070.8333282470703 1964.1666717529297 1032.5 1910.5C994.1666717529297 1856.8333282470703 944.6666717529297 1815.6666717529297 884.0 1787.0C842.0 1767.6666717529297 797.3333282470703 1755.0 750.0 1749.0C746.6666717529297 1762.3333282470703 739.3333282470703 1773.5 728.0 1782.5C716.6666717529297 1791.5 704.0 1796.0 690.0 1796.0V1795.0C675.3333282470703 1795.0 662.5 1790.8333282470703 651.5 1782.5C640.5 1774.1666717529297 633.0 1763.3333282470703 629.0 1750.0C567.6666717529297 1759.3333282470703 510.6666717529297 1780.3333282470703 458.0 1813.0C387.3333282470703 1856.3333282470703 330.5 1914.0 287.5 1986.0C244.5 2058.0 219.6666717529297 2136.6666717529297 213.0 2222.0C211.6666717529297 2243.3333282470703 211.0 2259.0 211.0 2269.0C211.0 2336.3333282470703 221.8333282470703 2401.8333282470703 243.5 2465.5C265.1666717529297 2529.1666717529297 296.3333282470703 2587.3333282470703 337.0 2640.0C341.0 2646.0 345.6666717529297 2651.6666717529297 351.0 2657.0C387.0 2639.0 425.0 2630.0 465.0 2630.0C498.3333282470703 2630.0 530.6666717529297 2636.0 562.0 2648.0C596.6666717529297 2661.3333282470703 626.6666717529297 2680.5 652.0 2705.5C677.3333282470703 2730.5 699.6666717529297 2762.6666717529297 719.0 2802.0C739.6666717529297 2844.6666717529297 755.6666717529297 2888.0 767.0 2932.0C814.3333282470703 2946.6666717529297 862.3333282470703 2957.0 911.0 2963.0C930.3333282470703 2933.0 954.6666717529297 2901.6666717529297 984.0 2869.0L1000.0 2852.0C968.6666717529297 2831.3333282470703 943.8333282470703 2806.3333282470703 925.5 2777.0C907.1666717529297 2747.6666717529297 898.0 2716.3333282470703 898.0 2683.0C898.0 2657.6666717529297 903.5 2634.3333282470703 914.5 2613.0C925.5 2591.6666717529297 940.6666717529297 2574.6666717529297 960.0 2562.0C979.3333282470703 2549.3333282470703 1000.3333282470703 2543.0 1023.0 2543.0C1044.3333282470703 2543.0 1063.0 2546.3333282470703 1079.0 2553.0C1097.0 2559.0 1111.3333282470703 2568.3333282470703 1122.0 2581.0C1132.6666717529297 2593.6666717529297 1138.0 2608.6666717529297 1138.0 2626.0C1138.0 2636.6666717529297 1135.6666717529297 2646.3333282470703 1131.0 2655.0C1126.3333282470703 2663.6666717529297 1119.3333282470703 2670.5 1110.0 2675.5C1100.6666717529297 2680.5 1090.6666717529297 2683.0 1080.0 2683.0C1064.6666717529297 2683.0 1051.3333282470703 2677.5 1040.0 2666.5C1028.6666717529297 2655.5 1023.0 2642.0 1023.0 2626.0C1023.0 2616.0 1025.6666717529297 2606.3333282470703 1031.0 2597.0C1037.0 2585.6666717529297 1046.3333282470703 2577.3333282470703 1059.0 2572.0C1049.0 2569.3333282470703 1037.0 2568.0 1023.0 2568.0C1006.3333282470703 2568.0 990.6666717529297 2572.6666717529297 976.0 2582.0C959.3333282470703 2592.6666717529297 946.3333282470703 2606.8333282470703 937.0 2624.5C927.6666717529297 2642.1666717529297 923.0 2661.6666717529297 923.0 2683.0C923.0 2713.6666717529297 931.5 2742.1666717529297 948.5 2768.5C965.5 2794.8333282470703 988.6666717529297 2816.6666717529297 1018.0 2834.0C1077.3333282470703 2777.3333282470703 1146.0 2733.1666717529297 1224.0 2701.5C1302.0 2669.8333282470703 1383.0 2654.0 1467.0 2654.0C1503.0 2654.0 1534.6666717529297 2655.3333282470703 1562.0 2658.0C1576.6666717529297 2626.0 1585.0 2590.6666717529297 1587.0 2552.0H1578.0C1529.3333282470703 2552.0 1483.3333282470703 2540.6666717529297 1440.0 2518.0C1396.6666717529297 2495.3333282470703 1359.6666717529297 2464.1666717529297 1329.0 2424.5C1298.3333282470703 2384.8333282470703 1276.3333282470703 2339.6666717529297 1263.0 2289.0C1253.0 2249.0 1248.0 2209.6666717529297 1248.0 2171.0C1248.0 2071.6666717529297 1279.3333282470703 1977.3333282470703 1342.0 1888.0L1348.0 1880.0L1330.0 1863.0C1240.0 1774.3333282470703 1168.6666717529297 1674.6666717529297 1116.0 1564.0C1094.0 1545.3333282470703 1076.6666717529297 1526.0 1064.0 1506.0L1027.0 1513.0L1026.0 1526.0C1024.6666717529297 1538.0 1022.8333282470703 1549.3333282470703 1020.5 1560.0C1018.1666717529297 1570.6666717529297 1015.1666717529297 1581.6666717529297 1011.5 1593.0C1007.8333282470703 1604.3333282470703 1005.3333282470703 1611.6666717529297 1004.0 1615.0C999.3333282470703 1629.0 993.8333282470703 1640.3333282470703 987.5 1649.0C981.1666717529297 1657.6666717529297 972.3333282470703 1667.3333282470703 961.0 1678.0C943.6666717529297 1693.3333282470703 919.6666717529297 1701.0 889.0 1701.0C862.3333282470703 1701.0 839.5 1694.1666717529297 820.5 1680.5C801.5 1666.8333282470703 792.0 1649.3333282470703 792.0 1628.0C792.0 1614.0 796.6666717529297 1602.3333282470703 806.0 1593.0C815.3333282470703 1583.6666717529297 827.0 1579.0 841.0 1579.0C850.3333282470703 1579.0 858.3333282470703 1581.3333282470703 865.0 1586.0C881.0 1594.6666717529297 889.0 1608.6666717529297 889.0 1628.0C889.0 1638.0 886.3333282470703 1647.0 881.0 1655.0C875.6666717529297 1663.0 868.6666717529297 1669.0 860.0 1673.0C868.6666717529297 1675.0 878.3333282470703 1676.0 889.0 1676.0C914.3333282470703 1676.0 934.3333282470703 1668.6666717529297 949.0 1654.0C958.3333282470703 1644.6666717529297 965.6666717529297 1635.8333282470703 971.0 1627.5C976.3333282470703 1619.1666717529297 981.0 1608.6666717529297 985.0 1596.0C989.0 1583.3333282470703 992.3333282470703 1571.0 995.0 1559.0C997.6666717529297 1547.0 1000.0 1533.0 1002.0 1517.0L956.0 1523.0C920.6666717529297 1526.3333282470703 888.3333282470703 1528.0 859.0 1528.0C757.0 1528.0 658.6666717529297 1512.0 564.0 1480.0L563.0 1494.0C563.0 1498.6666717529297 563.6666717529297 1505.0 565.0 1513.0L566.0 1523.0C566.0 1543.0 558.3333282470703 1556.6666717529297 543.0 1564.0C536.3333282470703 1566.6666717529297 531.0 1568.0 527.0 1568.0C511.6666717529297 1568.0 494.3333282470703 1558.0 475.0 1538.0C455.0 1517.3333282470703 439.0 1501.5 427.0 1490.5C415.0 1479.5 399.3333282470703 1466.0 380.0 1450.0C362.6666717529297 1435.3333282470703 345.8333282470703 1424.0 329.5 1416.0C313.1666717529297 1408.0 294.6666717529297 1404.0 274.0 1404.0C260.0 1404.0 247.3333282470703 1405.6666717529297 236.0 1409.0C204.6666717529297 1417.0 182.5 1434.8333282470703 169.5 1462.5C156.5 1490.1666717529297 150.0 1520.3333282470703 150.0 1553.0C150.0 1591.0 161.3333282470703 1621.0 184.0 1643.0C186.6666717529297 1635.6666717529297 190.8333282470703 1629.6666717529297 196.5 1625.0C202.1666717529297 1620.3333282470703 208.6666717529297 1618.0 216.0 1618.0C221.3333282470703 1618.0 226.3333282470703 1619.0 231.0 1621.0C238.3333282470703 1623.6666717529297 243.8333282470703 1628.0 247.5 1634.0C251.1666717529297 1640.0 253.0 1646.3333282470703 253.0 1653.0C253.0 1664.3333282470703 248.3333282470703 1674.0 239.0 1682.0C233.6666717529297 1686.6666717529297 227.0 1689.0 219.0 1689.0C211.0 1689.0 203.6666717529297 1686.6666717529297 197.0 1682.0C174.3333282470703 1670.0 156.8333282470703 1652.3333282470703 144.5 1629.0C132.1666717529297 1605.6666717529297 126.0 1579.3333282470703 126.0 1550.0C126.0 1512.6666717529297 133.6666717529297 1478.6666717529297 149.0 1448.0C164.3333282470703 1417.3333282470703 190.0 1396.6666717529297 226.0 1386.0C240.0 1382.0 254.6666717529297 1380.0 270.0 1380.0C306.0 1380.0 342.6666717529297 1391.3333282470703 380.0 1414.0C417.3333282470703 1436.6666717529297 452.0 1470.3333282470703 484.0 1515.0C498.0 1534.3333282470703 511.0 1544.0 523.0 1544.0C526.3333282470703 1544.0 530.0 1543.0 534.0 1541.0C546.6666717529297 1535.0 553.0 1526.3333282470703 553.0 1515.0C553.0 1505.0 547.0 1494.0 535.0 1482.0L516.0 1462.0L489.0 1450.0C419.6666717529297 1418.6666717529297 355.3333282470703 1378.5 296.0 1329.5C236.6666717529297 1280.5 186.0 1226.0 144.0 1166.0C106.66667175292969 1112.6666717529297 76.66667175292969 1054.1666717529297 54.0 990.5C31.333328247070312 926.8333282470703 17.666671752929688 860.6666717529297 13.0 792.0C-1.0 789.3333282470703 -12.833328247070312 782.5 -22.5 771.5C-32.16667175292969 760.5 -37.0 747.6666717529297 -37.0 733.0C-37.0 718.3333282470703 -32.16667175292969 705.3333282470703 -22.5 694.0C-12.833328247070312 682.6666717529297 -0.6666717529296875 676.0 14.0 674.0C19.333328247070312 612.6666717529297 32.66667175292969 553.1666717529297 54.0 495.5C75.33332824707031 437.8333282470703 103.0 384.3333282470703 137.0 335.0C115.66667175292969 329.6666717529297 92.33332824707031 325.0 67.0 321.0C50.33332824707031 318.3333282470703 36.0 311.5 24.0 300.5C12.0 289.5 6.0 275.3333282470703 6.0 258.0C6.0 242.0 12.333328247070312 228.5 25.0 217.5C37.66667175292969 206.5 54.33332824707031 198.3333282470703 75.0 193.0C100.33332824707031 185.6666717529297 120.0 178.8333282470703 134.0 172.5C148.0 166.1666717529297 158.3333282470703 156.6666717529297 165.0 144.0C174.3333282470703 127.33332824707031 179.0 110.33332824707031 179.0 93.0C179.0 78.33332824707031 176.1666717529297 65.16667175292969 170.5 53.5C164.8333282470703 41.83332824707031 156.3333282470703 33.0 145.0 27.0C93.66667175292969 -0.3333282470703125 53.33332824707031 -13.666671752929688 24.0 -13.0C41.33332824707031 -2.3333282470703125 51.33332824707031 11.0 54.0 27.0C55.33332824707031 39.0 52.5 51.5 45.5 64.5C38.5 77.5 29.333328247070312 86.33332824707031 18.0 91.0C12.0 93.66667175292969 5.3333282470703125 95.0 -2.0 95.0C-16.666671752929688 95.0 -31.0 89.0 -45.0 77.0C-56.33332824707031 67.0 -62.0 54.33332824707031 -62.0 39.0C-62.0 29.666671752929688 -59.33332824707031 19.666671752929688 -54.0 9.0V8.0C-42.66667175292969 -13.333328247070312 -24.666671752929688 -26.333328247070312 0.0 -31.0C10.0 -33.0 20.333328247070312 -34.0 31.0 -34.0C68.33332824707031 -34.0 110.33332824707031 -20.666671752929688 157.0 6.0C172.3333282470703 14.0 184.0 25.833328247070312 192.0 41.5C200.0 57.16667175292969 204.0 74.33332824707031 204.0 93.0C204.0 114.33332824707031 198.3333282470703 135.3333282470703 187.0 156.0C179.6666717529297 168.6666717529297 168.8333282470703 178.6666717529297 154.5 186.0C140.1666717529297 193.3333282470703 121.33332824707031 200.3333282470703 98.0 207.0C52.66667175292969 219.0 30.0 236.0 30.0 258.0C29.333328247070312 273.3333282470703 31.666671752929688 285.0 37.0 293.0C42.33332824707031 301.0 50.33332824707031 305.0 61.0 305.0C63.66667175292969 305.0 68.33332824707031 304.3333282470703 75.0 303.0L166.0 279.0C170.0 277.6666717529297 175.6666717529297 277.0 183.0 277.0C193.6666717529297 264.3333282470703 205.3333282470703 251.6666717529297 218.0 239.0C277.3333282470703 181.0 346.6666717529297 135.5 426.0 102.5C505.3333282470703 69.5 588.3333282470703 53.0 675.0 53.0C691.6666717529297 53.0 704.0 53.33332824707031 712.0 54.0C744.6666717529297 56.0 776.6666717529297 61.0 808.0 69.0C874.6666717529297 85.0 933.6666717529297 110.33332824707031 985.0 145.0C1002.3333282470703 157.0 1015.3333282470703 166.3333282470703 1024.0 173.0L1072.0 206.0C1097.3333282470703 223.3333282470703 1128.0 242.6666717529297 1164.0 264.0C1200.0 285.3333282470703 1229.6666717529297 301.0 1253.0 311.0C1273.6666717529297 320.3333282470703 1296.0 328.0 1320.0 334.0C1378.0 274.0 1444.3333282470703 219.0 1519.0 169.0C1547.0 149.6666717529297 1580.0 130.0 1618.0 110.0C1613.3333282470703 82.0 1601.1666717529297 58.66667175292969 1581.5 40.0C1561.8333282470703 21.333328247070312 1538.3333282470703 12.0 1511.0 12.0C1497.0 12.0 1485.0 13.333328247070312 1475.0 16.0C1485.6666717529297 20.666671752929688 1494.3333282470703 27.833328247070312 1501.0 37.5C1507.6666717529297 47.16667175292969 1511.0 58.0 1511.0 70.0C1511.0 86.0 1505.3333282470703 99.66667175292969 1494.0 111.0C1482.6666717529297 122.33332824707031 1469.3333282470703 128.0 1454.0 128.0C1438.0 128.0 1424.3333282470703 122.33332824707031 1413.0 111.0C1401.6666717529297 99.66667175292969 1396.0 86.0 1396.0 70.0C1396.0 45.33332824707031 1407.1666717529297 25.5 1429.5 10.5C1451.8333282470703 -4.5 1479.0 -12.0 1511.0 -12.0C1542.3333282470703 -12.0 1569.6666717529297 -1.3333282470703125 1593.0 20.0C1617.0 42.0 1632.0 68.66667175292969 1638.0 100.0C1720.6666717529297 60.0 1812.0 28.0 1912.0 4.0C1993.3333282470703 -15.333328247070312 2079.3333282470703 -25.0 2170.0 -25.0C2213.3333282470703 -25.0 2257.0 -23.0 2301.0 -19.0C2305.0 -30.333328247070312 2311.8333282470703 -39.66667175292969 2321.5 -47.0C2331.1666717529297 -54.33332824707031 2342.3333282470703 -58.0 2355.0 -58.0C2373.0 -58.0 2387.0 -52.33332824707031 2397.0 -41.0C2407.6666717529297 -29.0 2413.0 -15.333328247070312 2413.0 0.0C2413.0 16.0 2407.3333282470703 29.666671752929688 2396.0 41.0C2384.6666717529297 52.33332824707031 2371.0 58.0 2355.0 58.0C2345.6666717529297 58.0 2336.3333282470703 55.33332824707031 2327.0 50.0C2309.6666717529297 39.33332824707031 2300.0 24.666671752929688 2298.0 6.0C2249.3333282470703 1.3333282470703125 2207.3333282470703 -1.0 2172.0 -1.0C2154.0 -1.0 2140.3333282470703 -0.6666717529296875 2131.0 0.0C1995.6666717529297 2.6666717529296875 1857.3333282470703 33.33332824707031 1716.0 92.0C1687.3333282470703 103.33332824707031 1662.6666717529297 114.66667175292969 1642.0 126.0C1643.3333282470703 150.6666717529297 1641.0 175.3333282470703 1635.0 200.0C1621.0 245.3333282470703 1594.6666717529297 283.1666717529297 1556.0 313.5C1517.3333282470703 343.8333282470703 1472.6666717529297 362.0 1422.0 368.0C1410.0 369.3333282470703 1400.6666717529297 370.0 1394.0 370.0C1381.3333282470703 370.0 1367.3333282470703 369.0 1352.0 367.0C1345.3333282470703 366.3333282470703 1337.0 364.6666717529297 1327.0 362.0C1284.3333282470703 406.6666717529297 1246.0 455.0 1212.0 507.0C1213.3333282470703 525.6666717529297 1214.0 539.3333282470703 1214.0 548.0C1214.0 594.0 1206.6666717529297 638.6666717529297 1192.0 682.0C1177.3333282470703 725.3333282470703 1156.0 764.6666717529297 1128.0 800.0C1108.0 825.3333282470703 1085.3333282470703 847.6666717529297 1060.0 867.0C1046.6666717529297 923.0 1038.6666717529297 980.3333282470703 1036.0 1039.0C1082.0 1019.0 1125.3333282470703 990.1666717529297 1166.0 952.5C1206.6666717529297 914.8333282470703 1250.0 866.6666717529297 1296.0 808.0C1362.0 720.6666717529297 1411.0 657.0 1443.0 617.0C1490.3333282470703 556.3333282470703 1539.0 497.3333282470703 1589.0 440.0C1639.0 382.6666717529297 1676.3333282470703 345.3333282470703 1701.0 328.0C1777.0 272.0 1860.3333282470703 229.6666717529297 1951.0 201.0C2041.6666717529297 172.3333282470703 2133.6666717529297 158.0 2227.0 158.0L2259.0 159.0C2355.0 162.3333282470703 2453.5 178.1666717529297 2554.5 206.5C2655.5 234.8333282470703 2753.6666717529297 273.6666717529297 2849.0 323.0C2951.6666717529297 375.6666717529297 3053.3333282470703 442.0 3154.0 522.0C3168.0 438.6666717529297 3181.6666717529297 380.6666717529297 3195.0 348.0C3210.3333282470703 308.0 3225.6666717529297 274.0 3241.0 246.0C3121.0 169.3333282470703 2991.6666717529297 116.66667175292969 2853.0 88.0C2848.3333282470703 98.66667175292969 2841.3333282470703 107.33332824707031 2832.0 114.0C2822.6666717529297 120.66667175292969 2812.0 124.0 2800.0 124.0C2784.0 124.0 2770.3333282470703 118.5 2759.0 107.5C2747.6666717529297 96.5 2742.0 83.0 2742.0 67.0C2742.0 51.0 2747.6666717529297 37.33332824707031 2759.0 26.0C2770.3333282470703 14.666671752929688 2784.0 9.0 2800.0 9.0C2815.3333282470703 9.0 2828.5 14.333328247070312 2839.5 25.0C2850.5 35.66667175292969 2856.3333282470703 48.66667175292969 2857.0 64.0C2999.6666717529297 92.66667175292969 3131.6666717529297 145.6666717529297 3253.0 223.0C3277.0 181.0 3301.0 149.6666717529297 3325.0 129.0C3355.0 103.0 3389.6666717529297 81.33332824707031 3429.0 64.0C3468.3333282470703 46.66667175292969 3510.3333282470703 36.0 3555.0 32.0C3562.3333282470703 31.333328247070312 3573.0 31.0 3587.0 31.0C3627.0 31.0 3665.5 37.0 3702.5 49.0C3739.5 61.0 3773.3333282470703 78.66667175292969 3804.0 102.0C3877.3333282470703 156.6666717529297 3926.3333282470703 226.0 3951.0 310.0C3962.3333282470703 346.0 3968.0 385.0 3968.0 427.0C3968.0 493.6666717529297 3952.0 555.3333282470703 3920.0 612.0C3896.6666717529297 652.0 3867.1666717529297 685.3333282470703 3831.5 712.0ZM855.0 3609.0C879.0 3673.0 913.0 3734.3333282470703 957.0 3793.0C1094.3333282470703 3865.0 1217.6666717529297 3956.3333282470703 1327.0 4067.0C1336.3333282470703 4061.0 1346.0 4058.0 1356.0 4058.0C1370.6666717529297 4058.0 1383.3333282470703 4063.3333282470703 1394.0 4074.0C1404.0 4084.0 1409.0 4096.33332824707 1409.0 4111.0V4118.0C1477.0 4142.0 1545.3333282470703 4156.0 1614.0 4160.0C1623.3333282470703 4160.66667175293 1637.6666717529297 4161.0 1657.0 4161.0C1809.0 4161.0 1957.6666717529297 4115.33332824707 2103.0 4024.0C2181.6666717529297 3973.3333282470703 2252.0 3911.0 2314.0 3837.0C2272.6666717529297 3865.0 2227.3333282470703 3879.0 2178.0 3879.0C2148.6666717529297 3879.0 2123.5 3871.6666717529297 2102.5 3857.0C2081.5 3842.3333282470703 2071.0 3823.6666717529297 2071.0 3801.0C2071.0 3791.0 2073.3333282470703 3782.3333282470703 2078.0 3775.0C2082.6666717529297 3766.3333282470703 2089.1666717529297 3759.6666717529297 2097.5 3755.0C2105.8333282470703 3750.3333282470703 2114.6666717529297 3748.0 2124.0 3748.0C2138.6666717529297 3748.0 2151.3333282470703 3753.1666717529297 2162.0 3763.5C2172.6666717529297 3773.8333282470703 2178.0 3786.3333282470703 2178.0 3801.0C2178.0 3811.6666717529297 2174.8333282470703 3821.5 2168.5 3830.5C2162.1666717529297 3839.5 2154.0 3846.0 2144.0 3850.0C2152.6666717529297 3852.6666717529297 2164.0 3854.0 2178.0 3854.0C2284.0 3854.0 2374.0 3780.0 2448.0 3632.0L2453.0 3621.0C2423.6666717529297 3605.0 2394.6666717529297 3588.0 2366.0 3570.0C2321.3333282470703 3542.0 2273.0 3509.3333282470703 2221.0 3472.0C2216.3333282470703 3480.0 2208.6666717529297 3491.3333282470703 2198.0 3506.0C2178.0 3589.3333282470703 2144.1666717529297 3664.3333282470703 2096.5 3731.0C2048.8333282470703 3797.6666717529297 1988.3333282470703 3850.1666717529297 1915.0 3888.5C1841.6666717529297 3926.8333282470703 1759.0 3946.0 1667.0 3946.0C1534.3333282470703 3946.0 1424.0 3915.3333282470703 1336.0 3854.0C1238.6666717529297 3826.0 1143.0 3777.0 1049.0 3707.0C986.3333282470703 3659.0 923.3333282470703 3617.0 860.0 3581.0L842.0 3571.0C846.0 3585.0 850.3333282470703 3597.6666717529297 855.0 3609.0ZM997.0 3841.0C1036.3333282470703 3887.0 1085.6666717529297 3932.0 1145.0 3976.0C1199.6666717529297 4016.0 1252.6666717529297 4048.6666717529297 1304.0 4074.0C1211.3333282470703 3983.3333282470703 1109.0 3905.6666717529297 997.0 3841.0ZM1523.0 3880.0C1487.0 3880.0 1451.0 3877.0 1415.0 3871.0C1487.0 3904.3333282470703 1571.0 3921.0 1667.0 3921.0C1736.3333282470703 3921.0 1800.6666717529297 3909.0 1860.0 3885.0C1929.3333282470703 3857.6666717529297 1989.6666717529297 3815.5 2041.0 3758.5C2092.3333282470703 3701.5 2131.0 3634.6666717529297 2157.0 3558.0C2082.3333282470703 3647.3333282470703 1994.6666717529297 3720.3333282470703 1894.0 3777.0C1770.6666717529297 3845.6666717529297 1647.0 3880.0 1523.0 3880.0ZM276.0 3671.0C276.0 3711.0 286.6666717529297 3744.6666717529297 308.0 3772.0C344.0 3819.3333282470703 387.0 3843.3333282470703 437.0 3844.0C461.6666717529297 3844.0 483.5 3838.6666717529297 502.5 3828.0C521.5 3817.3333282470703 540.6666717529297 3800.3333282470703 560.0 3777.0C576.6666717529297 3756.3333282470703 590.3333282470703 3742.0 601.0 3734.0C620.3333282470703 3718.0 643.3333282470703 3706.6666717529297 670.0 3700.0C541.3333282470703 3662.0 411.0 3640.6666717529297 279.0 3636.0C277.0 3648.0 276.0 3659.6666717529297 276.0 3671.0ZM638.5 3482.5C582.8333282470703 3465.5 533.0 3457.0 489.0 3457.0C440.3333282470703 3457.0 398.0 3469.6666717529297 362.0 3495.0C326.0 3520.3333282470703 300.3333282470703 3557.0 285.0 3605.0L283.0 3611.0C445.6666717529297 3617.0 603.3333282470703 3648.0 756.0 3704.0L767.0 3707.0L786.0 3715.0C830.6666717529297 3732.3333282470703 872.0 3750.3333282470703 910.0 3769.0C865.3333282470703 3702.3333282470703 832.6666717529297 3630.6666717529297 812.0 3554.0C752.0 3523.3333282470703 694.1666717529297 3499.5 638.5 3482.5ZM2507.0 3560.0H2511.0C2553.6666717529297 3560.6666717529297 2593.3333282470703 3557.6666717529297 2630.0 3551.0C2666.6666717529297 3544.3333282470703 2707.3333282470703 3532.6666717529297 2752.0 3516.0L2765.0 3511.0C2766.3333282470703 3456.3333282470703 2767.0 3417.3333282470703 2767.0 3394.0V3355.0C2751.0 3352.3333282470703 2737.6666717529297 3344.6666717529297 2727.0 3332.0C2716.3333282470703 3319.3333282470703 2711.0 3305.0 2711.0 3289.0C2711.0 3273.6666717529297 2715.6666717529297 3260.0 2725.0 3248.0C2734.3333282470703 3236.0 2746.3333282470703 3228.0 2761.0 3224.0C2751.6666717529297 3134.6666717529297 2735.0 3043.6666717529297 2711.0 2951.0C2682.3333282470703 2841.0 2648.3333282470703 2737.8333282470703 2609.0 2641.5C2569.6666717529297 2545.1666717529297 2520.0 2439.3333282470703 2460.0 2324.0C2452.6666717529297 2324.0 2447.3333282470703 2323.6666717529297 2444.0 2323.0C2428.6666717529297 2321.0 2411.6666717529297 2316.6666717529297 2393.0 2310.0C2436.3333282470703 2385.3333282470703 2474.6666717529297 2472.0 2508.0 2570.0C2534.0 2647.3333282470703 2554.5 2729.8333282470703 2569.5 2817.5C2584.5 2905.1666717529297 2592.0 2994.0 2592.0 3084.0C2592.0 3258.0 2563.6666717529297 3416.6666717529297 2507.0 3560.0ZM2392.0 3541.5C2418.6666717529297 3550.5 2448.3333282470703 3556.3333282470703 2481.0 3559.0C2537.6666717529297 3419.0 2566.0 3261.6666717529297 2566.0 3087.0C2566.0 3058.3333282470703 2565.6666717529297 3036.6666717529297 2565.0 3022.0C2559.6666717529297 2886.0 2537.8333282470703 2754.5 2499.5 2627.5C2461.1666717529297 2500.5 2407.3333282470703 2382.3333282470703 2338.0 2273.0C2324.6666717529297 2258.3333282470703 2315.0 2243.3333282470703 2309.0 2228.0L2279.0 2186.0L2275.0 2180.0C2226.3333282470703 2186.6666717529297 2175.3333282470703 2190.0 2122.0 2190.0L2154.0 2242.0C2234.6666717529297 2378.6666717529297 2288.0 2485.3333282470703 2314.0 2562.0C2332.6666717529297 2616.0 2348.1666717529297 2672.5 2360.5 2731.5C2372.8333282470703 2790.5 2380.0 2847.0 2382.0 2901.0L2383.0 2935.0C2383.0 3039.6666717529297 2366.0 3144.0 2332.0 3248.0C2306.6666717529297 3321.3333282470703 2273.6666717529297 3390.3333282470703 2233.0 3455.0C2262.3333282470703 3477.6666717529297 2288.6666717529297 3495.0 2312.0 3507.0C2338.6666717529297 3521.0 2365.3333282470703 3532.5 2392.0 3541.5ZM2735.0 2947.0C2761.0 3046.3333282470703 2777.6666717529297 3138.0 2785.0 3222.0C2801.6666717529297 3224.0 2815.6666717529297 3231.3333282470703 2827.0 3244.0C2838.3333282470703 3256.6666717529297 2844.0 3271.6666717529297 2844.0 3289.0C2844.0 3301.0 2841.0 3312.3333282470703 2835.0 3323.0C2824.3333282470703 3339.6666717529297 2810.0 3350.0 2792.0 3354.0C2792.0 3417.3333282470703 2791.3333282470703 3466.6666717529297 2790.0 3502.0C2821.3333282470703 3489.3333282470703 2850.5 3476.5 2877.5 3463.5C2904.5 3450.5 2939.6666717529297 3432.6666717529297 2983.0 3410.0L3032.0 3384.0C3024.0 3366.6666717529297 3009.0 3329.6666717529297 2987.0 3273.0C2947.6666717529297 3172.3333282470703 2909.6666717529297 3070.3333282470703 2873.0 2967.0C2868.3333282470703 2951.0 2862.3333282470703 2934.0 2855.0 2916.0C2777.0 2699.3333282470703 2672.0 2498.6666717529297 2540.0 2314.0C2520.0 2320.0 2502.3333282470703 2323.3333282470703 2487.0 2324.0C2546.3333282470703 2437.3333282470703 2595.5 2542.3333282470703 2634.5 2639.0C2673.5 2735.6666717529297 2707.0 2838.3333282470703 2735.0 2947.0ZM1523.0 3459.0C1560.3333282470703 3459.0 1596.3333282470703 3455.0 1631.0 3447.0C1627.6666717529297 3412.3333282470703 1616.3333282470703 3380.5 1597.0 3351.5C1577.6666717529297 3322.5 1552.6666717529297 3299.5 1522.0 3282.5C1491.3333282470703 3265.5 1458.0 3257.0 1422.0 3257.0C1382.0 3257.0 1344.6666717529297 3268.0 1310.0 3290.0C1275.3333282470703 3312.0 1248.0 3343.0 1228.0 3383.0L1276.0 3402.0C1305.3333282470703 3413.3333282470703 1338.1666717529297 3424.3333282470703 1374.5 3435.0C1410.8333282470703 3445.6666717529297 1441.6666717529297 3452.6666717529297 1467.0 3456.0C1485.6666717529297 3458.0 1504.3333282470703 3459.0 1523.0 3459.0ZM934.0 2990.0 923.0 2989.0C912.3333282470703 3006.3333282470703 904.6666717529297 3019.6666717529297 900.0 3029.0C860.6666717529297 3101.6666717529297 834.3333282470703 3182.0 821.0 3270.0C937.0 3280.0 1054.6666717529297 3310.0 1174.0 3360.0L1207.0 3374.0C1229.0 3330.0 1258.5 3295.3333282470703 1295.5 3270.0C1332.5 3244.6666717529297 1374.6666717529297 3232.0 1422.0 3232.0C1462.0 3232.0 1499.0 3241.1666717529297 1533.0 3259.5C1567.0 3277.8333282470703 1595.0 3303.0 1617.0 3335.0C1639.0 3367.0 1652.0 3402.3333282470703 1656.0 3441.0C1701.3333282470703 3428.3333282470703 1744.6666717529297 3409.6666717529297 1786.0 3385.0C1827.3333282470703 3360.3333282470703 1865.0 3330.6666717529297 1899.0 3296.0C1984.3333282470703 3208.6666717529297 2046.3333282470703 3100.0 2085.0 2970.0C2051.6666717529297 2920.6666717529297 2014.0 2878.6666717529297 1972.0 2844.0C1933.3333282470703 2958.0 1870.3333282470703 3051.3333282470703 1783.0 3124.0C1765.6666717529297 3138.0 1751.0 3150.5 1739.0 3161.5C1727.0 3172.5 1714.0 3185.3333282470703 1700.0 3200.0C1671.3333282470703 3230.6666717529297 1657.0 3260.3333282470703 1657.0 3289.0H1632.0C1611.3333282470703 3221.6666717529297 1576.6666717529297 3160.0 1528.0 3104.0C1466.6666717529297 3034.6666717529297 1390.6666717529297 2981.3333282470703 1300.0 2944.0C1290.0 2948.0 1277.6666717529297 2952.3333282470703 1263.0 2957.0C1177.0 2983.0 1096.0 2996.0 1020.0 2996.0C992.0 2996.0 963.3333282470703 2994.0 934.0 2990.0ZM3211.5 377.5C3199.8333282470703 411.8333282470703 3189.6666717529297 455.6666717529297 3181.0 509.0L3176.0 539.0C3221.3333282470703 577.0 3264.3333282470703 615.6666717529297 3305.0 655.0C3362.3333282470703 711.0 3414.8333282470703 771.6666717529297 3462.5 837.0C3510.1666717529297 902.3333282470703 3549.6666717529297 968.3333282470703 3581.0 1035.0C3609.0 1093.6666717529297 3630.5 1155.6666717529297 3645.5 1221.0C3660.5 1286.3333282470703 3668.0 1352.0 3668.0 1418.0C3668.0 1440.6666717529297 3667.0 1463.0 3665.0 1485.0C3657.0 1575.6666717529297 3633.6666717529297 1668.3333282470703 3595.0 1763.0C3565.6666717529297 1834.3333282470703 3524.6666717529297 1921.3333282470703 3472.0 2024.0C3452.6666717529297 2060.6666717529297 3431.3333282470703 2103.6666717529297 3408.0 2153.0C3360.6666717529297 2249.6666717529297 3326.0 2340.3333282470703 3304.0 2425.0C3285.3333282470703 2497.6666717529297 3276.0 2572.0 3276.0 2648.0C3276.0 2698.6666717529297 3280.6666717529297 2751.0 3290.0 2805.0C3301.3333282470703 2867.0 3320.8333282470703 2926.8333282470703 3348.5 2984.5C3376.1666717529297 3042.1666717529297 3411.0 3094.0 3453.0 3140.0C3477.0 3166.0 3503.6666717529297 3187.6666717529297 3533.0 3205.0C3562.3333282470703 3222.3333282470703 3591.0 3233.6666717529297 3619.0 3239.0C3634.3333282470703 3242.3333282470703 3652.0 3244.0 3672.0 3244.0C3710.6666717529297 3244.0 3742.3333282470703 3236.3333282470703 3767.0 3221.0C3787.0 3209.0 3802.6666717529297 3193.5 3814.0 3174.5C3825.3333282470703 3155.5 3831.0 3134.3333282470703 3831.0 3111.0C3831.0 3095.6666717529297 3829.3333282470703 3079.6666717529297 3826.0 3063.0C3826.0 3064.3333282470703 3824.3333282470703 3068.0 3821.0 3074.0C3818.3333282470703 3079.3333282470703 3814.6666717529297 3084.3333282470703 3810.0 3089.0H3811.0C3811.0 3111.0 3803.3333282470703 3129.6666717529297 3788.0 3145.0C3772.6666717529297 3160.3333282470703 3754.0 3168.0 3732.0 3168.0H3731.0C3661.6666717529297 3168.0 3597.3333282470703 3149.3333282470703 3538.0 3112.0C3476.0 3072.6666717529297 3427.8333282470703 3019.3333282470703 3393.5 2952.0C3359.1666717529297 2884.6666717529297 3342.0 2812.0 3342.0 2734.0C3342.0 2683.3333282470703 3351.6666717529297 2631.0 3371.0 2577.0C3383.6666717529297 2541.0 3395.3333282470703 2510.1666717529297 3406.0 2484.5C3416.6666717529297 2458.8333282470703 3431.0 2428.3333282470703 3449.0 2393.0C3465.0 2360.3333282470703 3480.1666717529297 2331.0 3494.5 2305.0C3508.8333282470703 2279.0 3525.3333282470703 2249.6666717529297 3544.0 2217.0C3704.6666717529297 1931.6666717529297 3793.0 1666.6666717529297 3809.0 1422.0C3811.0 1392.0 3812.0 1361.6666717529297 3812.0 1331.0C3812.0 1261.0 3807.0 1192.0 3797.0 1124.0C3792.3333282470703 1123.3333282470703 3785.6666717529297 1123.0 3777.0 1123.0C3762.3333282470703 1123.0 3750.0 1124.3333282470703 3740.0 1127.0C3751.3333282470703 1131.6666717529297 3760.3333282470703 1138.8333282470703 3767.0 1148.5C3773.6666717529297 1158.1666717529297 3777.0 1169.0 3777.0 1181.0C3777.0 1197.0 3771.3333282470703 1210.6666717529297 3760.0 1222.0C3748.6666717529297 1233.3333282470703 3735.0 1239.0 3719.0 1239.0C3703.0 1239.0 3689.3333282470703 1233.3333282470703 3678.0 1222.0C3666.6666717529297 1210.6666717529297 3661.0 1197.0 3661.0 1181.0C3661.0 1156.3333282470703 3672.1666717529297 1136.5 3694.5 1121.5C3716.8333282470703 1106.5 3744.3333282470703 1099.0 3777.0 1099.0C3784.3333282470703 1099.0 3789.6666717529297 1099.3333282470703 3793.0 1100.0C3775.0 995.3333282470703 3746.3333282470703 897.0 3707.0 805.0C3705.0 800.3333282470703 3699.3333282470703 787.6666717529297 3690.0 767.0C3678.0 768.3333282470703 3669.0 769.0 3663.0 769.0L3644.0 768.0C3589.3333282470703 764.0 3540.5 744.6666717529297 3497.5 710.0C3454.5 675.3333282470703 3425.0 631.3333282470703 3409.0 578.0C3401.0 553.3333282470703 3397.0 528.3333282470703 3397.0 503.0C3397.0 463.0 3406.0 425.6666717529297 3424.0 391.0C3402.6666717529297 370.3333282470703 3378.0 348.3333282470703 3350.0 325.0C3318.6666717529297 299.6666717529297 3289.3333282470703 278.0 3262.0 260.0C3240.0 304.0 3223.1666717529297 343.1666717529297 3211.5 377.5ZM897.0 2985.0C856.3333282470703 2979.0 815.3333282470703 2970.3333282470703 774.0 2959.0C780.0 2983.6666717529297 786.6666717529297 3019.3333282470703 794.0 3066.0C800.0 3106.6666717529297 804.6666717529297 3153.0 808.0 3205.0C827.3333282470703 3125.0 857.0 3051.6666717529297 897.0 2985.0ZM3561.0 3096.0C3521.6666717529297 3055.3333282470703 3493.3333282470703 2998.6666717529297 3476.0 2926.0C3468.0 2892.0 3464.0 2855.6666717529297 3464.0 2817.0C3464.0 2750.3333282470703 3475.6666717529297 2683.6666717529297 3499.0 2617.0C3513.6666717529297 2575.0 3602.6666717529297 2411.6666717529297 3766.0 2127.0C3894.6666717529297 1903.0 3968.3333282470703 1690.3333282470703 3987.0 1489.0C3988.3333282470703 1476.3333282470703 3989.0 1458.0 3989.0 1434.0C3989.0 1390.6666717529297 3984.6666717529297 1350.6666717529297 3976.0 1314.0C3964.6666717529297 1266.6666717529297 3945.5 1226.5 3918.5 1193.5C3891.5 1160.5 3859.0 1139.0 3821.0 1129.0C3831.0 1198.3333282470703 3836.0 1268.3333282470703 3836.0 1339.0C3836.0 1375.6666717529297 3835.3333282470703 1403.3333282470703 3834.0 1422.0C3818.0 1672.6666717529297 3728.6666717529297 1941.3333282470703 3566.0 2228.0C3537.3333282470703 2278.0 3506.0 2335.6666717529297 3472.0 2401.0C3454.6666717529297 2434.3333282470703 3440.8333282470703 2463.3333282470703 3430.5 2488.0C3420.1666717529297 2512.6666717529297 3408.6666717529297 2543.6666717529297 3396.0 2581.0C3376.0 2641.0 3366.0 2693.0 3366.0 2737.0C3366.0 2791.0 3375.8333282470703 2843.5 3395.5 2894.5C3415.1666717529297 2945.5 3442.3333282470703 2990.0 3477.0 3028.0C3501.6666717529297 3056.0 3529.6666717529297 3078.6666717529297 3561.0 3096.0ZM1023.5 2865.0C1023.1666717529297 2865.0 1023.0 2864.6666717529297 1023.0 2864.0C992.3333282470703 2894.6666717529297 964.0 2928.6666717529297 938.0 2966.0C964.0 2968.6666717529297 992.3333282470703 2970.0 1023.0 2970.0C1059.6666717529297 2970.0 1095.0 2968.0 1129.0 2964.0C1173.0 2958.6666717529297 1218.6666717529297 2947.6666717529297 1266.0 2931.0C1228.6666717529297 2917.6666717529297 1190.6666717529297 2907.6666717529297 1152.0 2901.0C1106.0 2896.3333282470703 1063.3333282470703 2884.3333282470703 1024.0 2865.0ZM2013.0 2592.0C2013.0 2672.0 2002.0 2747.3333282470703 1980.0 2818.0C2021.3333282470703 2852.0 2059.0 2892.3333282470703 2093.0 2939.0C2099.0 2914.3333282470703 2103.6666717529297 2893.6666717529297 2107.0 2877.0C2120.3333282470703 2809.6666717529297 2127.0 2738.6666717529297 2127.0 2664.0C2127.0 2505.3333282470703 2095.0 2346.0 2031.0 2186.0C1993.0 2182.6666717529297 1955.0 2177.6666717529297 1917.0 2171.0C1956.3333282470703 2261.0 1984.0 2352.0 2000.0 2444.0C2008.6666717529297 2498.0 2013.0 2547.3333282470703 2013.0 2592.0ZM701.0 2810.5C683.6666717529297 2775.5 664.0 2747.0 642.0 2725.0C597.3333282470703 2679.0 541.0 2656.0 473.0 2656.0C460.3333282470703 2656.0 451.0 2656.3333282470703 445.0 2657.0C420.3333282470703 2659.0 394.6666717529297 2666.0 368.0 2678.0C456.0 2780.6666717529297 566.3333282470703 2857.6666717529297 699.0 2909.0C703.6666717529297 2911.0 718.3333282470703 2916.3333282470703 743.0 2925.0C732.3333282470703 2883.6666717529297 718.3333282470703 2845.5 701.0 2810.5ZM1771.0 2728.0C1712.3333282470703 2707.3333282470703 1650.0 2693.0 1584.0 2685.0C1566.0 2729.0 1542.3333282470703 2766.6666717529297 1513.0 2798.0C1472.3333282470703 2842.0 1426.6666717529297 2878.3333282470703 1376.0 2907.0C1389.3333282470703 2908.3333282470703 1407.0 2909.0 1429.0 2909.0C1455.0 2908.3333282470703 1483.3333282470703 2905.1666717529297 1514.0 2899.5C1544.6666717529297 2893.8333282470703 1571.6666717529297 2886.0 1595.0 2876.0C1630.3333282470703 2860.6666717529297 1663.1666717529297 2840.3333282470703 1693.5 2815.0C1723.8333282470703 2789.6666717529297 1749.6666717529297 2760.6666717529297 1771.0 2728.0ZM1276.0 2897.0 1332.0 2903.0C1373.3333282470703 2883.0 1410.6666717529297 2859.3333282470703 1444.0 2832.0C1409.3333282470703 2854.6666717529297 1370.6666717529297 2872.3333282470703 1328.0 2885.0C1312.0 2889.6666717529297 1294.6666717529297 2893.6666717529297 1276.0 2897.0ZM1551.0 2682.0C1523.6666717529297 2680.0 1495.6666717529297 2679.0 1467.0 2679.0C1407.0 2679.0 1348.3333282470703 2687.5 1291.0 2704.5C1233.6666717529297 2721.5 1181.0 2745.3333282470703 1133.0 2776.0C1101.0 2796.0 1070.3333282470703 2819.6666717529297 1041.0 2847.0C1078.3333282470703 2863.6666717529297 1118.0 2873.6666717529297 1160.0 2877.0C1162.0 2877.0 1163.3333282470703 2877.3333282470703 1164.0 2878.0C1171.3333282470703 2878.6666717529297 1182.6666717529297 2879.0 1198.0 2879.0C1257.3333282470703 2879.0 1313.6666717529297 2867.6666717529297 1367.0 2845.0C1407.6666717529297 2827.6666717529297 1443.8333282470703 2805.1666717529297 1475.5 2777.5C1507.1666717529297 2749.8333282470703 1532.3333282470703 2718.0 1551.0 2682.0ZM1613.0 2270.0C1619.0 2272.0 1625.0 2274.6666717529297 1631.0 2278.0L1633.0 2279.0C1641.6666717529297 2283.6666717529297 1649.6666717529297 2290.3333282470703 1657.0 2299.0C1671.0 2315.0 1681.8333282470703 2335.6666717529297 1689.5 2361.0C1697.1666717529297 2386.3333282470703 1701.0 2414.0 1701.0 2444.0C1701.0 2468.6666717529297 1692.6666717529297 2490.5 1676.0 2509.5C1659.3333282470703 2528.5 1638.3333282470703 2541.3333282470703 1613.0 2548.0C1611.0 2587.3333282470703 1604.0 2625.0 1592.0 2661.0C1662.0 2670.3333282470703 1726.3333282470703 2685.6666717529297 1785.0 2707.0L1788.0 2702.0C1831.3333282470703 2626.0 1857.6666717529297 2540.0 1867.0 2444.0C1869.0 2421.3333282470703 1870.0 2398.6666717529297 1870.0 2376.0C1870.0 2301.3333282470703 1860.0 2227.3333282470703 1840.0 2154.0L1832.0 2152.0C1755.3333282470703 2130.6666717529297 1683.6666717529297 2103.6666717529297 1617.0 2071.0C1615.6666717529297 2106.3333282470703 1615.0 2137.0 1615.0 2163.0C1615.0 2189.0 1614.6666717529297 2210.6666717529297 1614.0 2228.0C1613.3333282470703 2238.0 1613.0 2252.0 1613.0 2270.0ZM1468.0 2485.5C1501.3333282470703 2505.1666717529297 1538.0 2515.0 1578.0 2515.0H1588.0V2444.0C1563.3333282470703 2444.0 1542.3333282470703 2435.3333282470703 1525.0 2418.0C1507.6666717529297 2400.6666717529297 1499.0 2380.0 1499.0 2356.0C1499.0 2331.3333282470703 1507.6666717529297 2310.3333282470703 1525.0 2293.0C1542.3333282470703 2275.6666717529297 1563.3333282470703 2267.0 1588.0 2267.0C1588.6666717529297 2257.0 1589.0 2241.0 1589.0 2219.0C1589.0 2185.0 1589.6666717529297 2144.6666717529297 1591.0 2098.0L1592.0 2058.0C1585.3333282470703 2054.6666717529297 1575.3333282470703 2049.0 1562.0 2041.0C1508.6666717529297 2065.6666717529297 1465.0 2095.0 1431.0 2129.0C1409.0 2151.0 1391.6666717529297 2176.5 1379.0 2205.5C1366.3333282470703 2234.5 1360.0 2264.6666717529297 1360.0 2296.0C1360.0 2335.3333282470703 1369.6666717529297 2371.8333282470703 1389.0 2405.5C1408.3333282470703 2439.1666717529297 1434.6666717529297 2465.8333282470703 1468.0 2485.5ZM1648.5 2419.5C1638.1666717529297 2429.1666717529297 1626.3333282470703 2436.0 1613.0 2440.0V2511.0L1626.0 2507.0C1641.3333282470703 2501.0 1653.6666717529297 2492.5 1663.0 2481.5C1672.3333282470703 2470.5 1677.0 2458.0 1677.0 2444.0C1677.0 2423.3333282470703 1675.0 2404.0 1671.0 2386.0C1666.3333282470703 2398.6666717529297 1658.8333282470703 2409.8333282470703 1648.5 2419.5ZM2800.0 2418.0C2782.6666717529297 2418.0 2768.0 2412.0 2756.0 2400.0C2743.3333282470703 2387.3333282470703 2737.0 2372.6666717529297 2737.0 2356.0C2737.0 2338.6666717529297 2743.1666717529297 2323.8333282470703 2755.5 2311.5C2767.8333282470703 2299.1666717529297 2782.6666717529297 2293.0 2800.0 2293.0C2812.0 2293.0 2822.3333282470703 2296.0 2831.0 2302.0C2840.3333282470703 2307.3333282470703 2847.8333282470703 2314.8333282470703 2853.5 2324.5C2859.1666717529297 2334.1666717529297 2862.0 2344.6666717529297 2862.0 2356.0C2862.0 2372.6666717529297 2855.8333282470703 2387.1666717529297 2843.5 2399.5C2831.1666717529297 2411.8333282470703 2816.6666717529297 2418.0 2800.0 2418.0ZM2435.0 2177.0C2432.3333282470703 2177.6666717529297 2428.0 2178.0 2422.0 2178.0C2403.3333282470703 2178.0 2385.6666717529297 2173.0 2369.0 2163.0L2323.0 2172.0V2178.0C2323.0 2189.3333282470703 2324.3333282470703 2199.0 2327.0 2207.0C2336.3333282470703 2219.6666717529297 2349.6666717529297 2239.3333282470703 2367.0 2266.0C2396.3333282470703 2288.6666717529297 2430.0 2300.0 2468.0 2300.0C2490.0 2300.0 2509.0 2297.3333282470703 2525.0 2292.0C2499.0 2256.6666717529297 2469.0 2218.3333282470703 2435.0 2177.0ZM2619.0 2232.5C2639.6666717529297 2210.1666717529297 2656.3333282470703 2184.3333282470703 2669.0 2155.0C2685.6666717529297 2114.3333282470703 2694.0 2072.6666717529297 2694.0 2030.0C2637.3333282470703 2066.0 2576.3333282470703 2096.0 2511.0 2120.0C2500.3333282470703 2142.6666717529297 2483.6666717529297 2159.3333282470703 2461.0 2170.0C2495.6666717529297 2212.6666717529297 2525.0 2250.3333282470703 2549.0 2283.0C2575.0 2271.6666717529297 2598.3333282470703 2254.8333282470703 2619.0 2232.5ZM711.0 2227.0C711.0 2234.3333282470703 707.6666717529297 2243.0 701.0 2253.0C691.0 2265.6666717529297 678.0 2272.0 662.0 2272.0C657.3333282470703 2272.0 650.3333282470703 2270.6666717529297 641.0 2268.0C607.0 2256.6666717529297 582.6666717529297 2251.0 568.0 2251.0C552.6666717529297 2251.0 528.0 2256.6666717529297 494.0 2268.0C484.6666717529297 2270.6666717529297 477.3333282470703 2272.0 472.0 2272.0C455.3333282470703 2272.0 442.6666717529297 2265.6666717529297 434.0 2253.0C428.0 2244.3333282470703 425.0 2235.6666717529297 425.0 2227.0C425.0 2217.6666717529297 428.1666717529297 2207.5 434.5 2196.5C440.8333282470703 2185.5 451.0 2171.0 465.0 2153.0C483.6666717529297 2129.6666717529297 493.0 2109.3333282470703 493.0 2092.0C493.0 2070.6666717529297 487.0 2052.3333282470703 475.0 2037.0C461.6666717529297 2020.3333282470703 446.3333282470703 2012.0 429.0 2012.0C379.6666717529297 2012.0 343.6666717529297 2021.3333282470703 321.0 2040.0C332.3333282470703 2040.6666717529297 341.8333282470703 2044.6666717529297 349.5 2052.0C357.1666717529297 2059.3333282470703 361.0 2069.3333282470703 361.0 2082.0C361.0 2100.0 354.0 2112.3333282470703 340.0 2119.0C332.0 2122.3333282470703 325.0 2124.0 319.0 2124.0C307.6666717529297 2124.0 297.8333282470703 2120.1666717529297 289.5 2112.5C281.1666717529297 2104.8333282470703 277.0 2094.6666717529297 277.0 2082.0V2081.0C277.0 2052.3333282470703 291.5 2029.6666717529297 320.5 2013.0C349.5 1996.3333282470703 385.6666717529297 1988.0 429.0 1988.0C445.6666717529297 1988.0 461.0 1993.0 475.0 2003.0C488.3333282470703 2012.3333282470703 498.6666717529297 2024.8333282470703 506.0 2040.5C513.3333282470703 2056.1666717529297 517.0 2073.3333282470703 517.0 2092.0C517.0 2113.3333282470703 504.3333282470703 2139.3333282470703 479.0 2170.0C469.0 2182.0 461.0 2193.3333282470703 455.0 2204.0C451.0 2210.0 449.0 2216.3333282470703 449.0 2223.0C449.0 2232.3333282470703 452.0 2240.5 458.0 2247.5C464.0 2254.5 470.3333282470703 2258.0 477.0 2258.0C483.6666717529297 2258.0 490.6666717529297 2254.5 498.0 2247.5C505.3333282470703 2240.5 513.3333282470703 2231.0 522.0 2219.0C542.0 2191.0 557.0 2177.0 567.0 2177.0C577.6666717529297 2177.0 590.6666717529297 2187.6666717529297 606.0 2209.0C620.6666717529297 2230.3333282470703 633.3333282470703 2245.0 644.0 2253.0C648.6666717529297 2256.3333282470703 653.0 2258.0 657.0 2258.0C666.3333282470703 2258.0 675.3333282470703 2250.6666717529297 684.0 2236.0C686.0 2232.0 687.0 2228.3333282470703 687.0 2225.0C687.0 2212.3333282470703 676.6666717529297 2194.0 656.0 2170.0C643.3333282470703 2154.6666717529297 633.8333282470703 2141.0 627.5 2129.0C621.1666717529297 2117.0 618.0 2104.6666717529297 618.0 2092.0C618.0 2072.0 621.6666717529297 2055.0 629.0 2041.0C636.3333282470703 2023.6666717529297 646.6666717529297 2011.0 660.0 2003.0C674.6666717529297 1993.0 690.0 1988.0 706.0 1988.0C749.3333282470703 1988.0 785.3333282470703 1996.3333282470703 814.0 2013.0C842.6666717529297 2029.6666717529297 857.0 2052.3333282470703 857.0 2081.0V2082.0C857.0 2099.3333282470703 850.3333282470703 2111.6666717529297 837.0 2119.0C829.0 2122.3333282470703 822.0 2124.0 816.0 2124.0C804.6666717529297 2124.0 794.8333282470703 2120.1666717529297 786.5 2112.5C778.1666717529297 2104.8333282470703 774.0 2094.6666717529297 774.0 2082.0C774.0 2064.6666717529297 781.0 2052.3333282470703 795.0 2045.0C801.6666717529297 2041.6666717529297 807.6666717529297 2040.0 813.0 2040.0C807.6666717529297 2036.0 800.6666717529297 2031.6666717529297 792.0 2027.0C769.3333282470703 2017.0 740.6666717529297 2012.0 706.0 2012.0C694.0 2012.0 683.0 2016.0 673.0 2024.0C663.0 2031.3333282470703 655.3333282470703 2041.0 650.0 2053.0C644.6666717529297 2065.0 642.0 2078.0 642.0 2092.0C642.0 2108.0 651.6666717529297 2128.3333282470703 671.0 2153.0C685.0 2171.0 695.1666717529297 2185.5 701.5 2196.5C707.8333282470703 2207.5 711.0 2217.6666717529297 711.0 2227.0ZM2257.0 2157.0C2205.6666717529297 2091.6666717529297 2149.6666717529297 2027.3333282470703 2089.0 1964.0C2070.3333282470703 1944.6666717529297 2051.6666717529297 1924.0 2033.0 1902.0C2017.0 1908.6666717529297 1997.3333282470703 1916.3333282470703 1974.0 1925.0C1956.0 1931.0 1945.3333282470703 1934.6666717529297 1942.0 1936.0L1945.0 1940.0C2001.6666717529297 2014.6666717529297 2055.0 2089.6666717529297 2105.0 2165.0H2133.0C2171.6666717529297 2165.0 2213.0 2162.3333282470703 2257.0 2157.0ZM1905.0 2144.0C1947.6666717529297 2152.0 1986.3333282470703 2157.6666717529297 2021.0 2161.0C1991.0 2090.3333282470703 1953.6666717529297 2018.6666717529297 1909.0 1946.0C1885.6666717529297 1953.3333282470703 1853.6666717529297 1961.6666717529297 1813.0 1971.0C1846.3333282470703 2027.0 1877.0 2084.6666717529297 1905.0 2144.0ZM2311.0 2084.0C2314.3333282470703 2072.0 2318.6666717529297 2061.0 2324.0 2051.0C2282.0 2008.3333282470703 2245.3333282470703 1972.3333282470703 2214.0 1943.0L2123.0 1857.0L2077.0 1883.0L2057.0 1892.0L2111.0 1952.0C2143.0 1986.6666717529297 2174.3333282470703 2021.3333282470703 2205.0 2056.0C2235.6666717529297 2090.6666717529297 2262.6666717529297 2123.0 2286.0 2153.0L2300.0 2151.0C2300.6666717529297 2129.0 2304.3333282470703 2106.6666717529297 2311.0 2084.0ZM2328.0 2112.0C2326.6666717529297 2119.3333282470703 2325.3333282470703 2131.0 2324.0 2147.0L2346.0 2142.0C2338.0 2133.3333282470703 2332.0 2123.3333282470703 2328.0 2112.0ZM1618.0 2044.0C1686.0 2079.3333282470703 1757.6666717529297 2107.0 1833.0 2127.0C1818.3333282470703 2079.0 1799.6666717529297 2030.0 1777.0 1980.0L1768.0 1982.0C1702.0 1996.6666717529297 1652.3333282470703 2009.3333282470703 1619.0 2020.0C1618.3333282470703 2025.3333282470703 1618.0 2033.3333282470703 1618.0 2044.0ZM2519.0 2080.0C2519.0 2085.3333282470703 2518.6666717529297 2089.0 2518.0 2091.0C2566.0 2072.3333282470703 2612.3333282470703 2050.3333282470703 2657.0 2025.0C2673.0 2015.6666717529297 2685.0 2008.3333282470703 2693.0 2003.0C2690.3333282470703 1971.6666717529297 2683.6666717529297 1940.6666717529297 2673.0 1910.0C2663.0 1879.3333282470703 2651.3333282470703 1852.0 2638.0 1828.0C2624.6666717529297 1804.0 2607.0 1779.3333282470703 2585.0 1754.0C2565.0 1732.0 2555.6666717529297 1721.6666717529297 2557.0 1723.0C2529.6666717529297 1738.3333282470703 2502.3333282470703 1750.6666717529297 2475.0 1760.0C2417.6666717529297 1780.0 2357.0 1790.0 2293.0 1790.0C2263.0 1790.0 2234.3333282470703 1788.0 2207.0 1784.0L2189.0 1805.0C2179.6666717529297 1815.6666717529297 2164.6666717529297 1828.3333282470703 2144.0 1843.0L2230.0 1924.0C2264.0 1955.3333282470703 2299.6666717529297 1990.6666717529297 2337.0 2030.0C2337.0 2029.3333282470703 2337.6666717529297 2028.3333282470703 2339.0 2027.0C2354.3333282470703 2004.3333282470703 2374.6666717529297 1990.0 2400.0 1984.0C2409.3333282470703 1982.6666717529297 2416.3333282470703 1982.0 2421.0 1982.0H2422.0C2448.6666717529297 1982.0 2471.6666717529297 1991.6666717529297 2491.0 2011.0C2509.6666717529297 2029.6666717529297 2519.0 2052.6666717529297 2519.0 2080.0ZM1593.0 2031.0 1594.0 2028.0 1592.0 2029.0H1591.5C1591.1666717529297 2029.0 1591.0 2029.3333282470703 1591.0 2030.0ZM2657.0 1778.5C2673.6666717529297 1805.5 2688.3333282470703 1835.3333282470703 2701.0 1868.0C2715.0 1905.3333282470703 2724.0 1942.3333282470703 2728.0 1979.0C2788.0 1937.0 2842.6666717529297 1888.8333282470703 2892.0 1834.5C2941.3333282470703 1780.1666717529297 2983.3333282470703 1722.3333282470703 3018.0 1661.0C3052.6666717529297 1599.0 3079.1666717529297 1532.6666717529297 3097.5 1462.0C3115.8333282470703 1391.3333282470703 3125.0 1319.3333282470703 3125.0 1246.0C3125.0 1219.3333282470703 3123.3333282470703 1189.3333282470703 3120.0 1156.0C3110.6666717529297 1067.3333282470703 3086.5 983.3333282470703 3047.5 904.0C3008.5 824.6666717529297 2959.0 757.0 2899.0 701.0C2846.3333282470703 651.0 2785.6666717529297 612.1666717529297 2717.0 584.5C2648.3333282470703 556.8333282470703 2577.6666717529297 543.0 2505.0 543.0C2484.3333282470703 543.0 2464.0 544.0 2444.0 546.0C2413.3333282470703 548.6666717529297 2379.3333282470703 557.0 2342.0 571.0C2304.6666717529297 585.0 2271.1666717529297 600.3333282470703 2241.5 617.0C2211.8333282470703 633.6666717529297 2179.6666717529297 655.6666717529297 2145.0 683.0C2105.0 714.3333282470703 2072.6666717529297 740.8333282470703 2048.0 762.5C2023.3333282470703 784.1666717529297 1993.6666717529297 812.6666717529297 1959.0 848.0C1946.3333282470703 860.6666717529297 1932.0 875.6666717529297 1916.0 893.0C1913.3333282470703 902.3333282470703 1911.3333282470703 911.3333282470703 1910.0 920.0C1908.0 934.0 1907.0 947.0 1907.0 959.0C1907.0 994.3333282470703 1915.1666717529297 1022.8333282470703 1931.5 1044.5C1947.8333282470703 1066.1666717529297 1970.6666717529297 1077.0 2000.0 1077.0V1076.0C2017.3333282470703 1076.0 2031.6666717529297 1074.6666717529297 2043.0 1072.0C2030.3333282470703 1066.6666717529297 2020.0 1058.5 2012.0 1047.5C2004.0 1036.5 2000.0 1024.0 2000.0 1010.0C2000.0 991.3333282470703 2006.5 975.5 2019.5 962.5C2032.5 949.5 2048.3333282470703 943.0 2067.0 943.0C2085.0 943.0 2100.5 949.5 2113.5 962.5C2126.5 975.5 2133.0 991.3333282470703 2133.0 1010.0V1011.0C2133.0 1017.0 2132.0 1023.0 2130.0 1029.0C2124.0 1051.0 2108.8333282470703 1068.5 2084.5 1081.5C2060.1666717529297 1094.5 2032.0 1101.0 2000.0 1101.0C1970.6666717529297 1101.0 1946.0 1091.0 1926.0 1071.0C1906.0 1051.0 1893.3333282470703 1025.0 1888.0 993.0C1886.0 982.3333282470703 1885.0 970.0 1885.0 956.0C1885.0 949.3333282470703 1885.6666717529297 938.0 1887.0 922.0L1869.0 942.0C1849.6666717529297 961.3333282470703 1823.3333282470703 989.6666717529297 1790.0 1027.0C1889.3333282470703 1118.3333282470703 1981.8333282470703 1199.5 2067.5 1270.5C2153.1666717529297 1341.5 2239.3333282470703 1407.6666717529297 2326.0 1469.0C2374.0 1502.3333282470703 2413.6666717529297 1531.6666717529297 2445.0 1557.0C2476.3333282470703 1582.3333282470703 2510.3333282470703 1612.6666717529297 2547.0 1648.0C2559.0 1659.3333282470703 2570.0 1670.3333282470703 2580.0 1681.0C2624.0 1649.0 2658.5 1610.6666717529297 2683.5 1566.0C2708.5 1521.3333282470703 2721.0 1473.3333282470703 2721.0 1422.0V1355.0C2708.3333282470703 1353.0 2696.6666717529297 1346.6666717529297 2686.0 1336.0C2672.6666717529297 1322.6666717529297 2666.0 1307.0 2666.0 1289.0C2666.0 1271.0 2672.6666717529297 1255.3333282470703 2686.0 1242.0C2688.6666717529297 1239.3333282470703 2690.6666717529297 1237.6666717529297 2692.0 1237.0L2685.0 1228.0C2669.6666717529297 1209.3333282470703 2655.3333282470703 1193.3333282470703 2642.0 1180.0C2628.6666717529297 1166.6666717529297 2611.6666717529297 1151.3333282470703 2591.0 1134.0C2593.6666717529297 1140.0 2595.0 1147.3333282470703 2595.0 1156.0C2595.0 1170.0 2591.6666717529297 1182.6666717529297 2585.0 1194.0C2577.6666717529297 1205.3333282470703 2568.3333282470703 1214.3333282470703 2557.0 1221.0C2545.6666717529297 1227.6666717529297 2533.3333282470703 1231.0 2520.0 1231.0C2505.3333282470703 1231.0 2492.6666717529297 1227.6666717529297 2482.0 1221.0C2470.0 1214.3333282470703 2460.6666717529297 1205.3333282470703 2454.0 1194.0C2447.3333282470703 1182.6666717529297 2444.0 1170.0 2444.0 1156.0C2444.0 1143.3333282470703 2447.1666717529297 1131.3333282470703 2453.5 1120.0C2459.8333282470703 1108.6666717529297 2468.3333282470703 1099.3333282470703 2479.0 1092.0H2478.0C2464.0 1097.3333282470703 2450.1666717529297 1105.8333282470703 2436.5 1117.5C2422.8333282470703 1129.1666717529297 2411.0 1143.3333282470703 2401.0 1160.0C2391.0 1176.0 2383.0 1195.5 2377.0 1218.5C2371.0 1241.5 2368.0 1265.0 2368.0 1289.0C2368.0 1299.0 2369.3333282470703 1308.0 2372.0 1316.0C2375.3333282470703 1308.0 2380.6666717529297 1301.5 2388.0 1296.5C2395.3333282470703 1291.5 2403.3333282470703 1289.0 2412.0 1289.0C2424.0 1289.0 2434.5 1293.3333282470703 2443.5 1302.0C2452.5 1310.6666717529297 2457.0 1321.3333282470703 2457.0 1334.0C2457.0 1346.0 2452.5 1356.3333282470703 2443.5 1365.0C2434.5 1373.6666717529297 2424.0 1378.0 2412.0 1378.0H2411.0C2391.6666717529297 1378.0 2375.5 1369.3333282470703 2362.5 1352.0C2349.5 1334.6666717529297 2343.0 1313.6666717529297 2343.0 1289.0C2343.0 1253.0 2348.6666717529297 1218.6666717529297 2360.0 1186.0C2380.6666717529297 1126.6666717529297 2415.6666717529297 1084.0 2465.0 1058.0C2475.6666717529297 1052.6666717529297 2484.0 1049.3333282470703 2490.0 1048.0C2467.3333282470703 1029.3333282470703 2446.3333282470703 1013.3333282470703 2427.0 1000.0C2413.6666717529297 1014.6666717529297 2397.3333282470703 1022.0 2378.0 1022.0C2359.3333282470703 1022.0 2343.6666717529297 1015.6666717529297 2331.0 1003.0C2317.6666717529297 989.6666717529297 2311.0 974.0 2311.0 956.0C2311.0 946.0 2313.0 936.3333282470703 2317.0 927.0C2284.3333282470703 904.3333282470703 2260.6666717529297 884.0 2246.0 866.0C2235.3333282470703 853.3333282470703 2226.6666717529297 839.3333282470703 2220.0 824.0C2213.3333282470703 808.6666717529297 2210.0 793.3333282470703 2210.0 778.0C2210.0 742.6666717529297 2217.8333282470703 713.0 2233.5 689.0C2249.1666717529297 665.0 2270.3333282470703 653.0 2297.0 653.0C2313.6666717529297 653.0 2328.3333282470703 659.3333282470703 2341.0 672.0C2353.0 684.0 2359.0 698.6666717529297 2359.0 716.0C2359.0 726.0 2356.3333282470703 736.3333282470703 2351.0 747.0C2337.6666717529297 767.6666717529297 2319.6666717529297 778.0 2297.0 778.0C2283.6666717529297 778.0 2271.6666717529297 774.3333282470703 2261.0 767.0C2250.3333282470703 759.6666717529297 2242.6666717529297 750.0 2238.0 738.0C2235.3333282470703 749.3333282470703 2234.0 762.6666717529297 2234.0 778.0C2234.0 827.3333282470703 2264.3333282470703 873.0 2325.0 915.0C2339.0 897.6666717529297 2356.6666717529297 889.0 2378.0 889.0C2396.0 889.0 2411.5 895.5 2424.5 908.5C2437.5 921.5 2444.0 937.3333282470703 2444.0 956.0C2444.0 964.6666717529297 2442.6666717529297 972.0 2440.0 978.0C2454.6666717529297 986.0 2475.6666717529297 997.3333282470703 2503.0 1012.0C2499.0 998.0 2497.0 983.3333282470703 2497.0 968.0C2497.0 940.0 2502.8333282470703 912.0 2514.5 884.0C2526.1666717529297 856.0 2542.3333282470703 831.6666717529297 2563.0 811.0C2583.0 790.3333282470703 2608.0 773.8333282470703 2638.0 761.5C2668.0 749.1666717529297 2699.6666717529297 743.0 2733.0 743.0C2749.0 743.0 2763.3333282470703 746.0 2776.0 752.0C2790.0 757.3333282470703 2801.1666717529297 765.3333282470703 2809.5 776.0C2817.8333282470703 786.6666717529297 2822.0 798.6666717529297 2822.0 812.0V813.0C2822.0 825.0 2817.6666717529297 835.3333282470703 2809.0 844.0C2800.3333282470703 852.6666717529297 2790.0 857.0 2778.0 857.0C2765.3333282470703 857.0 2754.6666717529297 852.6666717529297 2746.0 844.0C2737.3333282470703 835.3333282470703 2733.0 824.6666717529297 2733.0 812.0C2733.0 804.6666717529297 2735.0 797.3333282470703 2739.0 790.0C2745.0 780.6666717529297 2752.0 774.6666717529297 2760.0 772.0C2752.6666717529297 769.3333282470703 2743.6666717529297 768.0 2733.0 768.0C2699.0 768.0 2668.3333282470703 775.3333282470703 2641.0 790.0C2589.0 815.3333282470703 2556.0 858.6666717529297 2542.0 920.0C2540.0 931.3333282470703 2539.0 942.0 2539.0 952.0C2539.0 980.0 2546.0 1006.0 2560.0 1030.0V1022.0C2560.0 1001.3333282470703 2567.5 983.5 2582.5 968.5C2597.5 953.5 2615.3333282470703 946.0 2636.0 946.0C2650.0 946.0 2662.6666717529297 949.3333282470703 2674.0 956.0C2685.3333282470703 962.6666717529297 2694.3333282470703 971.8333282470703 2701.0 983.5C2707.6666717529297 995.1666717529297 2711.0 1008.0 2711.0 1022.0C2711.0 1042.6666717529297 2703.6666717529297 1060.3333282470703 2689.0 1075.0C2674.3333282470703 1089.6666717529297 2656.6666717529297 1097.0 2636.0 1097.0C2630.0 1097.0 2625.3333282470703 1096.6666717529297 2622.0 1096.0C2670.0 1141.3333282470703 2704.0 1183.6666717529297 2724.0 1223.0C2726.0 1222.3333282470703 2729.0 1222.0 2733.0 1222.0C2751.6666717529297 1222.0 2767.5 1228.5 2780.5 1241.5C2793.5 1254.5 2800.0 1270.3333282470703 2800.0 1289.0C2800.0 1305.0 2794.6666717529297 1319.1666717529297 2784.0 1331.5C2773.3333282470703 1343.8333282470703 2760.3333282470703 1351.6666717529297 2745.0 1355.0V1422.0C2745.0 1473.3333282470703 2733.3333282470703 1522.3333282470703 2710.0 1569.0C2682.0 1621.0 2644.0 1664.0 2596.0 1698.0C2620.0 1724.6666717529297 2640.3333282470703 1751.5 2657.0 1778.5ZM1112.0 1494.0C1122.6666717529297 1519.3333282470703 1131.0 1538.3333282470703 1137.0 1551.0C1170.3333282470703 1575.6666717529297 1206.3333282470703 1588.0 1245.0 1588.0C1258.3333282470703 1588.0 1269.3333282470703 1586.6666717529297 1278.0 1584.0C1268.6666717529297 1580.0 1260.8333282470703 1573.3333282470703 1254.5 1564.0C1248.1666717529297 1554.6666717529297 1245.0 1544.6666717529297 1245.0 1534.0C1245.0 1519.3333282470703 1250.1666717529297 1506.8333282470703 1260.5 1496.5C1270.8333282470703 1486.1666717529297 1283.3333282470703 1481.0 1298.0 1481.0C1308.6666717529297 1481.0 1317.6666717529297 1483.3333282470703 1325.0 1488.0C1333.0 1492.6666717529297 1339.3333282470703 1499.1666717529297 1344.0 1507.5C1348.6666717529297 1515.8333282470703 1351.0 1524.6666717529297 1351.0 1534.0C1351.0 1557.3333282470703 1340.6666717529297 1576.1666717529297 1320.0 1590.5C1299.3333282470703 1604.8333282470703 1274.3333282470703 1612.0 1245.0 1612.0C1214.3333282470703 1612.0 1185.0 1605.3333282470703 1157.0 1592.0L1175.0 1624.0C1224.3333282470703 1709.3333282470703 1286.6666717529297 1788.0 1362.0 1860.0C1428.6666717529297 1772.6666717529297 1515.0 1698.0 1621.0 1636.0L1627.0 1583.0C1632.3333282470703 1530.3333282470703 1639.0 1482.6666717529297 1647.0 1440.0C1655.0 1397.3333282470703 1666.0 1345.6666717529297 1680.0 1285.0C1696.0 1213.6666717529297 1716.6666717529297 1145.0 1742.0 1079.0C1637.3333282470703 1187.6666717529297 1528.0 1279.6666717529297 1414.0 1355.0C1320.0 1417.0 1219.3333282470703 1463.3333282470703 1112.0 1494.0ZM2512.0 1720.0 2541.0 1705.0C2514.3333282470703 1677.6666717529297 2484.0 1650.3333282470703 2450.0 1623.0C2404.0 1586.3333282470703 2352.6666717529297 1548.3333282470703 2296.0 1509.0C2288.0 1529.6666717529297 2277.6666717529297 1569.6666717529297 2265.0 1629.0C2251.6666717529297 1689.0 2238.0 1731.6666717529297 2224.0 1757.0L2222.0 1761.0C2254.0 1763.6666717529297 2278.3333282470703 1765.0 2295.0 1765.0C2373.6666717529297 1765.0 2446.0 1750.0 2512.0 1720.0ZM1738.0 1388.0C1725.3333282470703 1334.0 1720.0 1278.6666717529297 1722.0 1222.0C1706.0 1280.6666717529297 1691.0 1344.3333282470703 1677.0 1413.0C1666.3333282470703 1467.0 1656.3333282470703 1536.3333282470703 1647.0 1621.0L1756.0 1567.0L1791.0 1548.0C1767.0 1494.0 1749.3333282470703 1440.6666717529297 1738.0 1388.0ZM1812.0 1535.0 1814.0 1534.0C1812.0 1530.0 1808.3333282470703 1524.0 1803.0 1516.0ZM1746.0 1227.0C1746.0 1274.3333282470703 1753.0 1323.0 1767.0 1373.0C1781.6666717529297 1425.0 1804.3333282470703 1474.0 1835.0 1520.0C1850.3333282470703 1508.6666717529297 1863.0 1498.6666717529297 1873.0 1490.0C1911.0 1453.3333282470703 1930.0 1411.6666717529297 1930.0 1365.0C1930.0 1335.0 1926.3333282470703 1307.5 1919.0 1282.5C1911.6666717529297 1257.5 1897.6666717529297 1229.0 1877.0 1197.0C1858.3333282470703 1168.3333282470703 1841.8333282470703 1144.1666717529297 1827.5 1124.5C1813.1666717529297 1104.8333282470703 1796.0 1083.6666717529297 1776.0 1061.0C1762.6666717529297 1097.0 1753.3333282470703 1136.3333282470703 1748.0 1179.0C1746.6666717529297 1200.3333282470703 1746.0 1216.3333282470703 1746.0 1227.0ZM863.0 1504.0C890.3333282470703 1504.0 921.3333282470703 1502.3333282470703 956.0 1499.0C977.3333282470703 1496.3333282470703 993.3333282470703 1494.0 1004.0 1492.0L1007.0 1464.0C1009.0 1447.3333282470703 1010.0 1413.6666717529297 1010.0 1363.0V1311.0H1023.0C939.6666717529297 1310.3333282470703 859.0 1294.5 781.0 1263.5C703.0 1232.5 635.6666717529297 1190.0 579.0 1136.0C549.0 1107.3333282470703 523.0 1077.0 501.0 1045.0C502.3333282470703 1052.3333282470703 501.1666717529297 1059.5 497.5 1066.5C493.8333282470703 1073.5 488.3333282470703 1079.0 481.0 1083.0C477.0 1085.0 472.6666717529297 1086.0 468.0 1086.0C458.6666717529297 1086.0 450.1666717529297 1082.8333282470703 442.5 1076.5C434.8333282470703 1070.1666717529297 431.0 1061.6666717529297 431.0 1051.0C431.0 1047.0 432.3333282470703 1041.0 435.0 1033.0C408.3333282470703 1032.3333282470703 382.6666717529297 1042.3333282470703 358.0 1063.0C333.3333282470703 1083.6666717529297 314.3333282470703 1110.6666717529297 301.0 1144.0C296.3333282470703 1155.3333282470703 294.0 1167.6666717529297 294.0 1181.0C294.0 1199.6666717529297 298.6666717529297 1217.3333282470703 308.0 1234.0C323.3333282470703 1262.0 347.6666717529297 1283.6666717529297 381.0 1299.0C408.3333282470703 1311.0 469.3333282470703 1318.6666717529297 564.0 1322.0C609.3333282470703 1323.3333282470703 632.0 1338.0 632.0 1366.0C632.0 1369.3333282470703 631.3333282470703 1373.0 630.0 1377.0C628.6666717529297 1381.6666717529297 626.3333282470703 1386.1666717529297 623.0 1390.5C619.6666717529297 1394.8333282470703 615.3333282470703 1399.3333282470703 610.0 1404.0C604.6666717529297 1408.6666717529297 601.3333282470703 1411.6666717529297 600.0 1413.0C582.0 1429.6666717529297 571.3333282470703 1442.0 568.0 1450.0L567.0 1455.0C663.6666717529297 1487.6666717529297 762.3333282470703 1504.0 863.0 1504.0ZM1051.0 1483.0C1044.3333282470703 1471.0 1038.3333282470703 1458.0 1033.0 1444.0L1030.0 1488.0ZM1044.0 1367.0C1040.0 1349.6666717529297 1037.3333282470703 1338.0 1036.0 1332.0C1038.0 1374.6666717529297 1046.0 1412.6666717529297 1060.0 1446.0C1064.0 1458.0 1069.0 1468.6666717529297 1075.0 1478.0L1079.0 1477.0C1067.0 1447.6666717529297 1055.3333282470703 1411.0 1044.0 1367.0ZM1574.5 1078.5C1541.5 1108.8333282470703 1503.3333282470703 1139.0 1460.0 1169.0C1400.0 1210.3333282470703 1335.1666717529297 1243.5 1265.5 1268.5C1195.8333282470703 1293.5 1126.3333282470703 1307.3333282470703 1057.0 1310.0C1067.6666717529297 1362.0 1083.0 1415.6666717529297 1103.0 1471.0C1207.6666717529297 1442.3333282470703 1307.3333282470703 1396.3333282470703 1402.0 1333.0C1465.3333282470703 1291.0 1524.8333282470703 1245.8333282470703 1580.5 1197.5C1636.1666717529297 1149.1666717529297 1692.6666717529297 1094.6666717529297 1750.0 1034.0L1738.0 1021.0L1683.0 964.0C1643.6666717529297 1010.0 1607.5 1048.1666717529297 1574.5 1078.5ZM934.0 899.0C971.3333282470703 889.6666717529297 1006.3333282470703 873.3333282470703 1039.0 850.0L1040.0 846.0C1068.6666717529297 722.6666717529297 1117.6666717529297 607.6666717529297 1187.0 501.0C1181.0 446.3333282470703 1164.6666717529297 394.6666717529297 1138.0 346.0C1106.0 285.3333282470703 1061.6666717529297 233.0 1005.0 189.0C1001.0 186.3333282470703 996.1666717529297 183.1666717529297 990.5 179.5C984.8333282470703 175.8333282470703 978.3333282470703 171.3333282470703 971.0 166.0V165.0C893.0 113.66667175292969 806.6666717529297 85.0 712.0 79.0C703.3333282470703 78.33332824707031 690.0 78.0 672.0 78.0C589.3333282470703 78.0 510.0 93.66667175292969 434.0 125.0C358.0 156.3333282470703 292.0 200.0 236.0 256.0C223.3333282470703 268.6666717529297 214.0 278.6666717529297 208.0 286.0C214.0 290.6666717529297 219.1666717529297 298.1666717529297 223.5 308.5C227.8333282470703 318.8333282470703 231.0 330.0 233.0 342.0C237.0 359.3333282470703 240.6666717529297 372.6666717529297 244.0 382.0C248.6666717529297 396.6666717529297 253.5 407.6666717529297 258.5 415.0C263.5 422.3333282470703 270.6666717529297 427.0 280.0 429.0C290.6666717529297 431.0 301.3333282470703 427.3333282470703 312.0 418.0C322.6666717529297 408.6666717529297 328.3333282470703 396.3333282470703 329.0 381.0C329.0 362.3333282470703 323.6666717529297 336.3333282470703 313.0 303.0C308.3333282470703 290.3333282470703 306.0 277.0 306.0 263.0C306.0 249.0 309.0 237.0 315.0 227.0C326.3333282470703 207.0 341.0 191.1666717529297 359.0 179.5C377.0 167.8333282470703 395.6666717529297 162.0 415.0 162.0C429.6666717529297 162.0 443.6666717529297 165.3333282470703 457.0 172.0C494.3333282470703 193.3333282470703 523.8333282470703 216.1666717529297 545.5 240.5C567.1666717529297 264.8333282470703 578.0 289.3333282470703 578.0 314.0C578.0 327.3333282470703 574.3333282470703 340.6666717529297 567.0 354.0C562.3333282470703 364.0 555.5 371.6666717529297 546.5 377.0C537.5 382.3333282470703 528.0 385.0 518.0 385.0C514.6666717529297 385.0 510.3333282470703 384.3333282470703 505.0 383.0C491.6666717529297 378.3333282470703 480.6666717529297 371.5 472.0 362.5C463.3333282470703 353.5 459.0 342.3333282470703 459.0 329.0C459.0 313.6666717529297 464.8333282470703 299.8333282470703 476.5 287.5C488.1666717529297 275.1666717529297 501.6666717529297 269.0 517.0 269.0C526.3333282470703 269.0 535.3333282470703 271.3333282470703 544.0 276.0C529.3333282470703 249.3333282470703 496.3333282470703 222.0 445.0 194.0C435.6666717529297 189.3333282470703 425.3333282470703 187.0 414.0 187.0C398.6666717529297 187.0 384.1666717529297 191.6666717529297 370.5 201.0C356.8333282470703 210.3333282470703 345.6666717529297 223.0 337.0 239.0C331.6666717529297 247.6666717529297 329.0 259.3333282470703 329.0 274.0C329.0 287.3333282470703 331.3333282470703 301.0 336.0 315.0C340.0 326.3333282470703 344.0 339.3333282470703 348.0 354.0C350.0 363.3333282470703 351.0 373.0 351.0 383.0C351.0 410.3333282470703 341.0 429.3333282470703 321.0 440.0C313.6666717529297 444.6666717529297 305.6666717529297 447.0 297.0 447.0C287.6666717529297 447.0 277.0 443.6666717529297 265.0 437.0C250.3333282470703 428.3333282470703 234.3333282470703 413.3333282470703 217.0 392.0C210.3333282470703 383.3333282470703 202.1666717529297 374.5 192.5 365.5C182.8333282470703 356.5 174.0 350.0 166.0 346.0C165.3333282470703 345.3333282470703 164.5 345.0 163.5 345.0C162.5 345.0 161.6666717529297 344.6666717529297 161.0 344.0C127.0 392.0 99.5 444.1666717529297 78.5 500.5C57.5 556.8333282470703 44.33332824707031 615.0 39.0 675.0C43.0 675.6666717529297 47.66667175292969 677.6666717529297 53.0 681.0C62.33332824707031 686.3333282470703 69.66667175292969 693.6666717529297 75.0 703.0C80.33332824707031 712.3333282470703 83.0 722.6666717529297 83.0 734.0C83.0 744.6666717529297 80.33332824707031 754.6666717529297 75.0 764.0C66.33332824707031 778.6666717529297 54.0 787.6666717529297 38.0 791.0C42.66667175292969 857.6666717529297 56.0 921.8333282470703 78.0 983.5C100.0 1045.1666717529297 129.3333282470703 1101.6666717529297 166.0 1153.0C206.6666717529297 1211.6666717529297 255.5 1264.6666717529297 312.5 1312.0C369.5 1359.3333282470703 431.6666717529297 1398.0 499.0 1428.0C499.0 1425.3333282470703 499.3333282470703 1423.3333282470703 500.0 1422.0C506.0 1409.3333282470703 527.6666717529297 1403.6666717529297 565.0 1405.0C578.3333282470703 1406.3333282470703 589.6666717529297 1403.6666717529297 599.0 1397.0C606.3333282470703 1393.0 610.0 1385.6666717529297 610.0 1375.0C610.0 1366.3333282470703 606.3333282470703 1358.8333282470703 599.0 1352.5C591.6666717529297 1346.1666717529297 581.0 1343.0 567.0 1343.0L555.0 1344.0C537.6666717529297 1346.0 520.6666717529297 1347.0 504.0 1347.0C456.6666717529297 1347.0 412.6666717529297 1338.3333282470703 372.0 1321.0C345.3333282470703 1309.6666717529297 323.6666717529297 1294.3333282470703 307.0 1275.0C281.6666717529297 1246.3333282470703 269.0 1215.3333282470703 269.0 1182.0C269.0 1166.0 272.0 1150.0 278.0 1134.0C293.3333282470703 1096.6666717529297 315.3333282470703 1066.5 344.0 1043.5C372.6666717529297 1020.5 402.6666717529297 1009.0 434.0 1009.0C450.0 1009.0 465.3333282470703 1012.0 480.0 1018.0L487.0 1022.0C460.3333282470703 978.6666717529297 439.8333282470703 932.6666717529297 425.5 884.0C411.1666717529297 835.3333282470703 404.0 785.6666717529297 404.0 735.0C404.0 677.0 413.0 624.3333282470703 431.0 577.0C463.6666717529297 487.6666717529297 516.6666717529297 422.3333282470703 590.0 381.0C635.3333282470703 355.0 683.6666717529297 342.0 735.0 342.0C779.0 342.0 821.6666717529297 352.3333282470703 863.0 373.0C909.0 396.3333282470703 945.5 429.3333282470703 972.5 472.0C999.5 514.6666717529297 1013.0 562.0 1013.0 614.0C1013.0 658.0 1002.8333282470703 698.6666717529297 982.5 736.0C962.1666717529297 773.3333282470703 934.5 802.8333282470703 899.5 824.5C864.5 846.1666717529297 826.3333282470703 857.0 785.0 857.0C755.6666717529297 857.0 729.3333282470703 850.3333282470703 706.0 837.0C720.0 856.3333282470703 738.0 871.3333282470703 760.0 882.0C794.6666717529297 899.3333282470703 831.3333282470703 908.0 870.0 908.0C894.0 908.0 915.3333282470703 905.0 934.0 899.0ZM1011.0 1049.0C1013.6666717529297 992.3333282470703 1020.3333282470703 938.0 1031.0 886.0C979.6666717529297 916.6666717529297 925.0 932.0 867.0 932.0C843.0 932.0 821.0 929.3333282470703 801.0 924.0C757.6666717529297 912.6666717529297 722.5 891.8333282470703 695.5 861.5C668.5 831.1666717529297 655.0 796.0 655.0 756.0C655.0 720.0 659.3333282470703 688.0 668.0 660.0C674.0 638.6666717529297 683.0 619.3333282470703 695.0 602.0C704.3333282470703 588.0 716.3333282470703 576.8333282470703 731.0 568.5C745.6666717529297 560.1666717529297 762.0 556.0 780.0 556.0C793.3333282470703 556.0 806.1666717529297 558.5 818.5 563.5C830.8333282470703 568.5 841.6666717529297 575.6666717529297 851.0 585.0C870.3333282470703 604.3333282470703 880.0 628.0 880.0 656.0C880.0 683.3333282470703 870.1666717529297 706.8333282470703 850.5 726.5C830.8333282470703 746.1666717529297 807.3333282470703 756.0 780.0 756.0C760.6666717529297 756.0 743.6666717529297 751.6666717529297 729.0 743.0C708.3333282470703 731.0 693.6666717529297 713.0 685.0 689.0C681.6666717529297 705.6666717529297 680.0 728.0 680.0 756.0C680.0 778.0 690.0 796.1666717529297 710.0 810.5C730.0 824.8333282470703 754.0 832.0 782.0 832.0C837.3333282470703 832.0 885.0 812.0 925.0 772.0C947.0 749.3333282470703 963.1666717529297 724.6666717529297 973.5 698.0C983.8333282470703 671.3333282470703 989.0 644.6666717529297 989.0 618.0C989.0 584.6666717529297 982.0 551.6666717529297 968.0 519.0C938.6666717529297 453.0 889.0 407.6666717529297 819.0 383.0C793.0 373.0 763.0 368.0 729.0 368.0C669.0 368.0 614.3333282470703 386.3333282470703 565.0 423.0C525.0 453.0 494.1666717529297 490.8333282470703 472.5 536.5C450.8333282470703 582.1666717529297 440.0 631.0 440.0 683.0C440.0 732.3333282470703 449.3333282470703 779.6666717529297 468.0 825.0C486.6666717529297 870.3333282470703 512.0 910.0 544.0 944.0C572.0 974.0 604.6666717529297 999.6666717529297 642.0 1021.0C679.3333282470703 1042.3333282470703 718.6666717529297 1057.6666717529297 760.0 1067.0C788.6666717529297 1073.6666717529297 820.0 1077.0 854.0 1077.0C908.6666717529297 1077.0 961.0 1067.6666717529297 1011.0 1049.0ZM3147.0 567.0C3131.6666717529297 552.3333282470703 3116.0 538.6666717529297 3100.0 526.0C3035.3333282470703 475.3333282470703 2965.0 435.6666717529297 2889.0 407.0C2813.0 378.3333282470703 2735.6666717529297 362.3333282470703 2657.0 359.0C2647.0 358.3333282470703 2632.0 358.0 2612.0 358.0C2540.0 358.0 2468.6666717529297 366.6666717529297 2398.0 384.0C2327.3333282470703 401.3333282470703 2259.0 427.3333282470703 2193.0 462.0C2119.6666717529297 500.0 2055.1666717529297 544.3333282470703 1999.5 595.0C1943.8333282470703 645.6666717529297 1877.6666717529297 720.0 1801.0 818.0L1779.0 845.0C1743.6666717529297 890.3333282470703 1717.3333282470703 923.0 1700.0 943.0C1732.0 973.6666717529297 1756.0 996.0 1772.0 1010.0L1836.0 942.0C1864.0 912.0 1884.0 891.0 1896.0 879.0C1906.6666717529297 840.3333282470703 1923.3333282470703 804.0 1946.0 770.0L1965.0 785.0C1953.0 803.0 1943.0 821.0 1935.0 839.0C1955.0 819.0 1969.0 805.3333282470703 1977.0 798.0C2043.6666717529297 735.3333282470703 2093.6666717529297 691.6666717529297 2127.0 667.0C2187.0 622.3333282470703 2239.0 589.6666717529297 2283.0 569.0C2341.0 541.6666717529297 2394.6666717529297 525.6666717529297 2444.0 521.0C2473.3333282470703 518.3333282470703 2495.0 517.0 2509.0 517.0C2572.3333282470703 517.0 2636.0 528.3333282470703 2700.0 551.0C2782.0 580.3333282470703 2854.0 623.8333282470703 2916.0 681.5C2978.0 739.1666717529297 3029.3333282470703 809.6666717529297 3070.0 893.0C3091.3333282470703 935.0 3108.0 979.0 3120.0 1025.0L3121.0 984.0C3121.0 938.6666717529297 3122.5 880.6666717529297 3125.5 810.0C3128.5 739.3333282470703 3132.3333282470703 685.0 3137.0 647.0ZM1070.0 825.0C1085.3333282470703 811.0 1098.6666717529297 796.3333282470703 1110.0 781.0C1136.0 747.6666717529297 1155.6666717529297 710.6666717529297 1169.0 670.0C1182.3333282470703 629.3333282470703 1189.0 587.3333282470703 1189.0 544.0C1167.6666717529297 579.3333282470703 1148.6666717529297 615.3333282470703 1132.0 652.0C1106.6666717529297 707.3333282470703 1086.0 765.0 1070.0 825.0ZM3644.0 743.0C3659.3333282470703 743.0 3670.6666717529297 742.6666717529297 3678.0 742.0C3623.3333282470703 632.6666717529297 3556.0 534.0 3476.0 446.0C3460.0 460.6666717529297 3448.3333282470703 479.3333282470703 3441.0 502.0C3435.0 518.0 3432.0 535.3333282470703 3432.0 554.0C3432.0 572.6666717529297 3435.3333282470703 591.5 3442.0 610.5C3448.6666717529297 629.5 3458.6666717529297 647.3333282470703 3472.0 664.0C3492.0 689.3333282470703 3517.0 708.8333282470703 3547.0 722.5C3577.0 736.1666717529297 3609.3333282470703 743.0 3644.0 743.0ZM3944.0 423.0C3944.0 376.3333282470703 3935.6666717529297 331.3333282470703 3919.0 288.0C3878.3333282470703 186.6666717529297 3808.6666717529297 117.0 3710.0 79.0C3668.6666717529297 63.66667175292969 3626.0 56.0 3582.0 56.0C3526.6666717529297 56.0 3477.0 67.0 3433.0 89.0C3396.3333282470703 107.0 3365.5 127.16667175292969 3340.5 149.5C3315.5 171.8333282470703 3293.3333282470703 201.0 3274.0 237.0C3305.3333282470703 257.6666717529297 3336.0 280.3333282470703 3366.0 305.0C3392.6666717529297 327.0 3416.3333282470703 348.0 3437.0 368.0C3452.3333282470703 343.3333282470703 3472.6666717529297 323.8333282470703 3498.0 309.5C3523.3333282470703 295.1666717529297 3550.3333282470703 288.0 3579.0 288.0C3609.6666717529297 288.0 3637.6666717529297 296.0 3663.0 312.0C3688.3333282470703 328.0 3708.1666717529297 349.6666717529297 3722.5 377.0C3736.8333282470703 404.3333282470703 3744.0 434.3333282470703 3744.0 467.0C3744.0 483.6666717529297 3738.3333282470703 497.1666717529297 3727.0 507.5C3715.6666717529297 517.8333282470703 3702.6666717529297 523.0 3688.0 523.0C3673.3333282470703 523.0 3660.5 517.8333282470703 3649.5 507.5C3638.5 497.1666717529297 3633.0 483.6666717529297 3633.0 467.0H3632.0C3632.0 451.6666717529297 3624.5 438.6666717529297 3609.5 428.0C3594.5 417.3333282470703 3577.3333282470703 412.0 3558.0 412.0C3550.0 412.0 3542.3333282470703 413.0 3535.0 415.0C3521.0 419.0 3508.3333282470703 424.3333282470703 3497.0 431.0C3582.3333282470703 525.6666717529297 3651.0 628.0 3703.0 738.0C3758.3333282470703 728.0 3807.0 701.3333282470703 3849.0 658.0C3882.3333282470703 624.0 3906.5 586.8333282470703 3921.5 546.5C3936.5 506.1666717529297 3944.0 465.0 3944.0 423.0ZM1208.0 471.0 1215.0 460.0C1243.0 420.6666717529297 1271.6666717529297 385.3333282470703 1301.0 354.0C1277.6666717529297 346.0 1243.6666717529297 331.6666717529297 1199.0 311.0C1182.3333282470703 303.0 1153.0 286.3333282470703 1111.0 261.0C1130.3333282470703 285.6666717529297 1146.6666717529297 310.3333282470703 1160.0 335.0C1183.3333282470703 379.0 1199.3333282470703 424.3333282470703 1208.0 471.0ZM1399.0 344.0C1409.6666717529297 344.0 1417.3333282470703 343.6666717529297 1422.0 343.0C1466.0 337.0 1504.8333282470703 321.1666717529297 1538.5 295.5C1572.1666717529297 269.8333282470703 1596.0 238.0 1610.0 200.0C1616.6666717529297 175.3333282470703 1620.0 154.3333282470703 1620.0 137.0C1534.6666717529297 182.3333282470703 1451.6666717529297 242.6666717529297 1371.0 318.0L1348.0 340.0C1363.3333282470703 342.6666717529297 1380.3333282470703 344.0 1399.0 344.0ZM2628.0 72.5C2614.0 86.16667175292969 2597.3333282470703 93.0 2578.0 93.0C2558.6666717529297 93.0 2541.6666717529297 86.33332824707031 2527.0 73.0C2513.0 59.0 2506.0 42.33332824707031 2506.0 23.0C2506.0 3.0 2513.0 -14.0 2527.0 -28.0C2541.0 -42.0 2558.0 -49.0 2578.0 -49.0C2597.3333282470703 -49.0 2614.0 -42.0 2628.0 -28.0C2642.0 -14.0 2649.0 3.0 2649.0 23.0C2649.0 42.33332824707031 2642.0 58.83332824707031 2628.0 72.5Z" fill="currentColor"/></g></svg>