<svg xmlns="http://www.w3.org/2000/svg" viewBox="0 0 4155 4342" role="img" aria-label="Y"><g transform="translate(102, 4244) scale(1,-1)"><path d="M3831.5 712C3795.8 738.7 3757 756 3715 764L3729 795C3771 893.7 3800.3 996.3 3817 1103C3847.7 1109.7 3875.8 1123.3 3901.5 1144C3927.2 1164.7 3948 1190.7 3964 1222C3996.7 1285.3 4013 1358.3 4013 1441C4013 1451.7 4012.3 1467.7 4011 1489C3996.3 1691.7 3921.7 1908.7 3787 2140C3691 2306 3620 2432.7 3574 2520C3604 2491.3 3636.8 2469 3672.5 2453C3708.2 2437 3744.7 2429 3782 2429C3794.7 2429 3807.7 2430 3821 2432C3857 2438 3889.7 2451 3919 2471C3948.3 2491 3971.3 2516 3988 2546C4004.7 2576 4013 2607.7 4013 2641C4013 2674.3 4005.3 2704.7 3990 2732C3974.7 2759.3 3954.3 2780.8 3929 2796.5C3903.7 2812.2 3876.7 2820 3848 2820C3829.3 2820 3813 2817.3 3799 2812C3775 2804.7 3755.8 2791.8 3741.5 2773.5C3727.2 2755.2 3720 2734.3 3720 2711C3720 2686.3 3726.5 2665.3 3739.5 2648C3752.5 2630.7 3769 2622 3789 2622H3790C3802 2622 3812.3 2626.3 3821 2635C3829.7 2643.7 3834 2654.3 3834 2667C3834 2675 3832 2682.3 3828 2689C3824 2695.7 3818.5 2701 3811.5 2705C3804.5 2709 3797 2711 3789 2711C3780.3 2711 3772.3 2708.5 3765 2703.5C3757.7 2698.5 3752.3 2692 3749 2684C3746.3 2691.3 3745 2700.3 3745 2711C3745 2727 3750 2742 3760 2756C3770 2770 3783 2780.7 3799 2788C3814.3 2794.7 3830.3 2798 3847 2798C3871 2798 3893.8 2791.2 3915.5 2777.5C3937.2 2763.8 3954.7 2745.3 3968 2722C3981.3 2698.7 3988 2672.7 3988 2644C3988 2598.7 3972.3 2558.5 3941 2523.5C3909.7 2488.5 3869.7 2466.3 3821 2457C3803.7 2454.3 3790.3 2453 3781 2453C3730.3 2453 3681.8 2468.8 3635.5 2500.5C3589.2 2532.2 3551 2574.7 3521 2628C3498.3 2690 3487 2753.7 3487 2819C3487 2875.7 3496 2929 3514 2979C3532.7 3028.3 3561.3 3068 3600 3098C3638.7 3128 3682.7 3143 3732 3143C3744 3143 3754.8 3139.5 3764.5 3132.5C3774.2 3125.5 3780.7 3116.7 3784 3106C3774 3109.3 3764.7 3111 3756 3111C3734.7 3111 3716.7 3103.7 3702 3089C3687.3 3074.3 3680 3056.7 3680 3036C3680 3021.3 3683.3 3008.7 3690 2998C3696.7 2986 3705.8 2976.7 3717.5 2970C3729.2 2963.3 3742 2960 3756 2960H3757C3787 2960.7 3811 2975.5 3829 3004.5C3847 3033.5 3856 3069 3856 3111C3856 3150.3 3843 3182.3 3817 3207C3781.7 3240.3 3735.3 3257 3678 3257C3645.3 3257 3612.7 3252.3 3580 3243C3529.3 3229 3473.2 3199.3 3411.5 3154C3349.8 3108.7 3287.7 3051.7 3225 2983C3088.3 2833 3003.3 2675.3 2970 2510C2958.7 2457.3 2953 2404 2953 2350C2953 2253.3 2972.3 2156 3011 2058C3031.7 2006 3055 1955.8 3081 1907.5C3107 1859.2 3140.3 1801.7 3181 1735L3193 1715C3273.7 1577.7 3328 1459.3 3356 1360C3376 1292.7 3386 1220.3 3386 1143C3386 1061.7 3374.7 981.3 3352 902C3335.3 844.7 3311.3 789.2 3280 735.5C3248.7 681.8 3211.7 633 3169 589C3163.7 625.7 3159.5 661.2 3156.5 695.5C3153.5 729.8 3151.3 773 3150 825C3147.3 890.3 3145.8 946.2 3145.5 992.5C3145.2 1038.8 3145 1093 3145 1155C3148.3 1188.3 3150 1218.7 3150 1246C3150 1306.7 3143.3 1367.3 3130 1428C3092 1600.7 3008.7 1752 2880 1882C2832.7 1929.3 2782.7 1971 2730 2007C2732 2063.7 2721.3 2117.3 2698 2168C2683.3 2199.3 2664.5 2226.7 2641.5 2250C2618.5 2273.3 2592.7 2291.7 2564 2305C2697.3 2492.3 2802 2692.7 2878 2906C2893.3 2950 2902.7 2976.7 2906 2986C2914 3009.3 2920.8 3028.8 2926.5 3044.5C2932.2 3060.2 2936.7 3073 2940 3083C2953.3 3120.3 2970.8 3167.3 2992.5 3224C3014.2 3280.7 3034.3 3330.3 3053 3373C3096.3 3351 3139.7 3331 3183 3313C3219.7 3297.7 3253.5 3285.8 3284.5 3277.5C3315.5 3269.2 3350.7 3262 3390 3256C3413.3 3252.7 3434.3 3251 3453 3251C3503.7 3251 3552.3 3260 3599 3278C3639 3292.7 3675.7 3313.7 3709 3341C3742.3 3368.3 3770 3400.3 3792 3437C3806.7 3461.7 3817.8 3488 3825.5 3516C3833.2 3544 3837 3572 3837 3600C3837 3630 3833.3 3656.3 3826 3679C3814 3719 3793.7 3751.2 3765 3775.5C3736.3 3799.8 3703.3 3812 3666 3812C3616 3812 3574 3802 3540 3782C3506 3762 3488.7 3734.7 3488 3700V3699C3488 3674.3 3496.7 3653.3 3514 3636C3531.3 3618.7 3552.3 3610 3577 3610C3601.7 3610 3622.7 3618.7 3640 3636C3657.3 3653.3 3666 3674.3 3666 3699C3666 3717.7 3660.5 3734.7 3649.5 3750C3638.5 3765.3 3624.3 3776.3 3607 3783C3627 3786.3 3646.7 3788 3666 3788C3691.3 3788 3715.2 3781.3 3737.5 3768C3759.8 3754.7 3777.3 3737 3790 3715C3808 3681 3817 3646.3 3817 3611C3817 3593.7 3814.3 3575.3 3809 3556C3795.7 3506 3769.7 3465.5 3731 3434.5C3692.3 3403.5 3648.3 3388.3 3599 3389C3581 3389 3460.7 3478.3 3238 3657C3224.7 3667.7 3214.3 3675.3 3207 3680C3222.3 3704 3236.3 3725 3249 3743C3333 3855 3404.3 3929.7 3463 3967C3505 3993 3549.7 4014 3597 4030C3644.3 4046 3692.3 4054 3741 4054C3777.7 4054 3811.3 4048.2 3842 4036.5C3872.7 4024.8 3897 4008.2 3915 3986.5C3933 3964.8 3942 3939.7 3942 3911C3942 3897.7 3940.7 3886.7 3938 3878C3934 3888 3927.5 3896 3918.5 3902C3909.5 3908 3899.7 3911 3889 3911C3874.3 3911 3861.8 3905.8 3851.5 3895.5C3841.2 3885.2 3836 3872.7 3836 3858C3836 3843.3 3841.2 3830.8 3851.5 3820.5C3861.8 3810.2 3874.3 3805 3889 3805V3804C3894.3 3804 3901 3805.3 3909 3808C3927 3814 3941.2 3826.5 3951.5 3845.5C3961.8 3864.5 3967 3886.3 3967 3911C3967 3946.3 3955.7 3976.7 3933 4002C3911 4027.3 3882.5 4046.5 3847.5 4059.5C3812.5 4072.5 3774 4079 3732 4079C3680 4079 3631 4070.7 3585 4054C3534.3 4036.7 3490.2 4015.8 3452.5 3991.5C3414.8 3967.2 3377 3934 3339 3892C3303.7 3852.7 3275 3818.8 3253 3790.5C3231 3762.2 3209 3729.7 3187 3693C3153 3713.7 3117.3 3729.3 3080 3740C3030 3755.3 2977.7 3763 2923 3763C2877 3763 2827.7 3757.3 2775 3746C2769.7 3848.7 2767 3918.7 2767 3956C2767 3970 2773.7 3979.3 2787 3984C2789.7 3984.7 2794 3985 2800 3985C2808 3985 2819.7 3983.3 2835 3980C2853.7 3975.3 2873 3967.3 2893 3956C2915 3945.3 2938.7 3940 2964 3940C2999.3 3940 3031.7 3950.3 3061 3971C3161.7 4041.7 3215.3 4077 3222 4077V4101C3206.7 4101 3191 4097.5 3175 4090.5C3159 4083.5 3137.7 4073 3111 4059L3090 4047C3078 4041 3067.5 4036.5 3058.5 4033.5C3049.5 4030.5 3040 4029 3030 4029C3005.3 4029 2971.3 4040 2928 4062C2910 4071.3 2890.7 4076 2870 4076C2846.7 4076 2824.7 4070.3 2804 4059C2785.3 4049 2770.5 4034.7 2759.5 4016C2748.5 3997.3 2743 3977.3 2743 3956C2743 3912 2746 3840.3 2752 3741L2723 3733C2641 3710.3 2558.3 3677 2475 3633C2463 3660.3 2453.3 3687.7 2446 3715C2437.3 3748.3 2430.8 3778.2 2426.5 3804.5C2422.2 3830.8 2419 3862.7 2417 3900C2415 3936 2413.7 3967.5 2413 3994.5C2412.3 4021.5 2412 4053 2412 4089C2412 4103 2413.3 4115 2416 4125C2420.7 4114.3 2427.8 4105.7 2437.5 4099C2447.2 4092.3 2458 4089 2470 4089C2486 4089 2499.7 4094.7 2511 4106C2522.3 4117.3 2528 4131 2528 4147C2528 4163 2522.3 4176.5 2511 4187.5C2499.7 4198.5 2486 4204 2470 4204H2464H2463C2440.3 4201.3 2422 4189.2 2408 4167.5C2394 4145.8 2387 4119.7 2387 4089C2387 4033 2387.5 3990.3 2388.5 3961C2389.5 3931.7 2392 3894.7 2396 3850C2398.7 3816.7 2403.3 3783 2410 3749C2384 3790.3 2355 3829.3 2323 3866C2261.7 3936.7 2193 3996.2 2117 4044.5C2041 4092.8 1960.3 4129.7 1875 4155C1806.3 4175.7 1734 4186 1658 4186C1570.7 4186 1484.3 4171 1399 4141C1394.3 4148.3 1388.2 4154 1380.5 4158C1372.8 4162 1364.7 4164 1356 4164C1341.3 4164 1329 4159 1319 4149C1308.3 4138.3 1303 4125.7 1303 4111C1303 4106.3 1303.3 4102.7 1304 4100C1163.3 4031.3 1046.3 3940 953 3826L941 3811C924.3 3801.7 898.7 3789 864 3773C882 3794.3 895 3814 903 3832C918.3 3863.3 926 3898.7 926 3938C926 3978 917.7 4015 901 4049L878 4040C901.3 3993.3 913 3954.3 913 3923C913 3891.7 900.7 3869.7 876 3857C869.3 3853.7 862.7 3852 856 3852C844.7 3851.3 828.7 3855.3 808 3864C795.3 3869.3 779 3879.3 759 3894L734 3911C710.7 3927.7 685 3940.3 657 3949C629 3957.7 600.3 3962 571 3962C550.3 3962 530.7 3960 512 3956C427.3 3939.3 359.3 3896 308 3826C266 3768 245.7 3704.3 247 3635H223C193 3635 166 3638.3 142 3645C116 3651 95.2 3661.8 79.5 3677.5C63.8 3693.2 56.7 3711.7 58 3733C59.3 3746.3 93 3783.3 159 3844C175 3858.7 187.7 3876.7 197 3898C203.7 3914 207 3931 207 3949C207 3967.7 202.7 3986.7 194 4006C186.7 4021.3 175.7 4033.7 161 4043C146.3 4052.3 130 4057 112 4057C85.3 4057 62.3 4050 43 4036C23.7 4022 14 4004.3 14 3983C14 3973.7 16.3 3965.7 21 3959C25 3951 30.8 3944.8 38.5 3940.5C46.2 3936.2 54.3 3934 63 3934C76.3 3934 87.8 3938.8 97.5 3948.5C107.2 3958.2 112 3969.7 112 3983C112 3993 109.3 4002.2 104 4010.5C98.7 4018.8 91.3 4024.7 82 4028C90 4030.7 100 4032 112 4032C122.7 4032 131.3 4029 138 4023C148.7 4013 154 3998.7 154 3980C154 3974 153.7 3969.3 153 3966C151 3954 146.2 3941.2 138.5 3927.5C130.8 3913.8 121.3 3901 110 3889C84 3863 64.5 3839 51.5 3817C38.5 3795 32 3772.7 32 3750C32 3722 40.7 3697.3 58 3676C75.3 3654.7 98.5 3638.3 127.5 3627C156.5 3615.7 188.3 3610 223 3610H248C250.7 3574 259 3539.7 273 3507C287 3474.3 304.7 3445.3 326 3420C402.7 3329.3 523 3278.7 687 3268C697.7 3267.3 714 3267 736 3267C758.7 3267 775.7 3267.3 787 3268L785 3224C779 3116.7 767.3 3026 750 2952C677.3 2929.3 609.3 2899 546 2861C468.7 2815 401.7 2758 345 2690C309 2712.7 279.3 2743.5 256 2782.5C232.7 2821.5 218.3 2864.3 213 2911C211.7 2925.7 211 2936.3 211 2943C211 2979 217.3 3012.3 230 3043C242.7 3073.7 260.7 3098 284 3116C307.3 3134 334.3 3143 365 3143C389.7 3143 410.8 3135.8 428.5 3121.5C446.2 3107.2 455 3089 455 3067C455 3049.7 453.7 3034.7 451 3022L446 3032C439.3 3042.7 430.5 3051.2 419.5 3057.5C408.5 3063.8 396.7 3067 384 3067C364.7 3067 348 3060 334 3046C320 3032 313 3015.3 313 2996C313 2976 320 2959 334 2945C348 2931 364.7 2924 384 2924H385C413.7 2924.7 436.7 2938.7 454 2966C471.3 2993.3 480 3027 480 3067C480 3095.7 468.7 3119.7 446 3139C423.3 3158.3 396 3168 364 3168C326 3168 292.3 3155.5 263 3130.5C233.7 3105.5 212.7 3072.7 200 3032C191.3 3004 187 2973.3 187 2940C187 2902.7 193.7 2865 207 2827C220.3 2789 241.7 2753.3 271 2720C286.3 2702 305.3 2685.3 328 2670C307.3 2643.3 289.7 2617.3 275 2592C246.3 2544.7 224.5 2493.7 209.5 2439C194.5 2384.3 187 2328.7 187 2272C187 2261.3 187.7 2244.7 189 2222C195.7 2132 221.5 2049.2 266.5 1973.5C311.5 1897.8 371.3 1837.3 446 1792C501.3 1757.3 561.7 1735.3 627 1726C628.3 1716.7 631.3 1708.7 636 1702C641.3 1692.7 648.8 1685.2 658.5 1679.5C668.2 1673.8 678.3 1671 689 1671C705 1671 718.8 1676.2 730.5 1686.5C742.2 1696.8 749 1709.3 751 1724C803.7 1731.3 852 1745.3 896 1766C960.7 1797.3 1013.3 1841.5 1054 1898.5C1094.7 1955.5 1118 2019 1124 2089C1124.7 2095.7 1125 2106 1125 2120C1125 2178.7 1111.7 2234 1085 2286C1058.3 2338 1021.3 2381 974 2415C936.7 2441.7 898 2460 858 2470C857.3 2485.3 851.5 2498.2 840.5 2508.5C829.5 2518.8 816.3 2524 801 2524C784.3 2524 770.7 2518.7 760 2508C751.3 2499.3 746 2489.7 744 2479C718.7 2475.7 696.3 2470.7 677 2464C637 2449.3 605 2426.8 581 2396.5C557 2366.2 545 2331.7 545 2293L568 2285C568 2320.3 578.8 2351.8 600.5 2379.5C622.2 2407.2 651.3 2427.7 688 2441C707.3 2447.7 726 2452 744 2454C747.3 2440.7 754.2 2429.8 764.5 2421.5C774.8 2413.2 787 2409 801 2409C813 2409 823.8 2412.3 833.5 2419C843.2 2425.7 850 2434.3 854 2445C891.3 2435.7 927.3 2418.7 962 2394C1006 2362.7 1040 2323 1064 2275C1088 2227 1100 2175.7 1100 2121C1100 2107 1099.7 2096.3 1099 2089C1093 2023.7 1070.8 1964.2 1032.5 1910.5C994.2 1856.8 944.7 1815.7 884 1787C842 1767.7 797.3 1755 750 1749C746.7 1762.3 739.3 1773.5 728 1782.5C716.7 1791.5 704 1796 690 1796V1795C675.3 1795 662.5 1790.8 651.5 1782.5C640.5 1774.2 633 1763.3 629 1750C567.7 1759.3 510.7 1780.3 458 1813C387.3 1856.3 330.5 1914 287.5 1986C244.5 2058 219.7 2136.7 213 2222C211.7 2243.3 211 2259 211 2269C211 2336.3 221.8 2401.8 243.5 2465.5C265.2 2529.2 296.3 2587.3 337 2640C341 2646 345.7 2651.7 351 2657C387 2639 425 2630 465 2630C498.3 2630 530.7 2636 562 2648C596.7 2661.3 626.7 2680.5 652 2705.5C677.3 2730.5 699.7 2762.7 719 2802C739.7 2844.7 755.7 2888 767 2932C814.3 2946.7 862.3 2957 911 2963C930.3 2933 954.7 2901.7 984 2869L1000 2852C968.7 2831.3 943.8 2806.3 925.5 2777C907.2 2747.7 898 2716.3 898 2683C898 2657.7 903.5 2634.3 914.5 2613C925.5 2591.7 940.7 2574.7 960 2562C979.3 2549.3 1000.3 2543 1023 2543C1044.3 2543 1063 2546.3 1079 2553C1097 2559 1111.3 2568.3 1122 2581C1132.7 2593.7 1138 2608.7 1138 2626C1138 2636.7 1135.7 2646.3 1131 2655C1126.3 2663.7 1119.3 2670.5 1110 2675.5C1100.7 2680.5 1090.7 2683 1080 2683C1064.7 2683 1051.3 2677.5 1040 2666.5C1028.7 2655.5 1023 2642 1023 2626C1023 2616 1025.7 2606.3 1031 2597C1037 2585.7 1046.3 2577.3 1059 2572C1049 2569.3 1037 2568 1023 2568C1006.3 2568 990.7 2572.7 976 2582C959.3 2592.7 946.3 2606.8 937 2624.5C927.7 2642.2 923 2661.7 923 2683C923 2713.7 931.5 2742.2 948.5 2768.5C965.5 2794.8 988.7 2816.7 1018 2834C1077.3 2777.3 1146 2733.2 1224 2701.5C1302 2669.8 1383 2654 1467 2654C1503 2654 1534.7 2655.3 1562 2658C1576.7 2626 1585 2590.7 1587 2552H1578C1529.3 2552 1483.3 2540.7 1440 2518C1396.7 2495.3 1359.7 2464.2 1329 2424.5C1298.3 2384.8 1276.3 2339.7 1263 2289C1253 2249 1248 2209.7 1248 2171C1248 2071.7 1279.3 1977.3 1342 1888L1348 1880L1330 1863C1240 1774.3 1168.7 1674.7 1116 1564C1094 1545.3 1076.7 1526 1064 1506L1027 1513L1026 1526C1024.7 1538 1022.8 1549.3 1020.5 1560C1018.2 1570.7 1015.2 1581.7 1011.5 1593C1007.8 1604.3 1005.3 1611.7 1004 1615C999.3 1629 993.8 1640.3 987.5 1649C981.2 1657.7 972.3 1667.3 961 1678C943.7 1693.3 919.7 1701 889 1701C862.3 1701 839.5 1694.2 820.5 1680.5C801.5 1666.8 792 1649.3 792 1628C792 1614 796.7 1602.3 806 1593C815.3 1583.7 827 1579 841 1579C850.3 1579 858.3 1581.3 865 1586C881 1594.7 889 1608.7 889 1628C889 1638 886.3 1647 881 1655C875.7 1663 868.7 1669 860 1673C868.7 1675 878.3 1676 889 1676C914.3 1676 934.3 1668.7 949 1654C958.3 1644.7 965.7 1635.8 971 1627.5C976.3 1619.2 981 1608.7 985 1596C989 1583.3 992.3 1571 995 1559C997.7 1547 1000 1533 1002 1517L956 1523C920.7 1526.3 888.3 1528 859 1528C757 1528 658.7 1512 564 1480L563 1494C563 1498.7 563.7 1505 565 1513L566 1523C566 1543 558.3 1556.7 543 1564C536.3 1566.7 531 1568 527 1568C511.7 1568 494.3 1558 475 1538C455 1517.3 439 1501.5 427 1490.5C415 1479.5 399.3 1466 380 1450C362.7 1435.3 345.8 1424 329.5 1416C313.2 1408 294.7 1404 274 1404C260 1404 247.3 1405.7 236 1409C204.7 1417 182.5 1434.8 169.5 1462.5C156.5 1490.2 150 1520.3 150 1553C150 1591 161.3 1621 184 1643C186.7 1635.7 190.8 1629.7 196.5 1625C202.2 1620.3 208.7 1618 216 1618C221.3 1618 226.3 1619 231 1621C238.3 1623.7 243.8 1628 247.5 1634C251.2 1640 253 1646.3 253 1653C253 1664.3 248.3 1674 239 1682C233.7 1686.7 227 1689 219 1689C211 1689 203.7 1686.7 197 1682C174.3 1670 156.8 1652.3 144.5 1629C132.2 1605.7 126 1579.3 126 1550C126 1512.7 133.7 1478.7 149 1448C164.3 1417.3 190 1396.7 226 1386C240 1382 254.7 1380 270 1380C306 1380 342.7 1391.3 380 1414C417.3 1436.7 452 1470.3 484 1515C498 1534.3 511 1544 523 1544C526.3 1544 530 1543 534 1541C546.7 1535 553 1526.3 553 1515C553 1505 547 1494 535 1482L516 1462L489 1450C419.7 1418.7 355.3 1378.5 296 1329.5C236.7 1280.5 186 1226 144 1166C106.7 1112.7 76.7 1054.2 54 990.5C31.3 926.8 17.7 860.7 13 792C-1 789.3 -12.8 782.5 -22.5 771.5C-32.2 760.5 -37 747.7 -37 733C-37 718.3 -32.2 705.3 -22.5 694C-12.8 682.7 -0.7 676 14 674C19.3 612.7 32.7 553.2 54 495.5C75.3 437.8 103 384.3 137 335C115.7 329.7 92.3 325 67 321C50.3 318.3 36 311.5 24 300.5C12 289.5 6 275.3 6 258C6 242 12.3 228.5 25 217.5C37.7 206.5 54.3 198.3 75 193C100.3 185.7 120 178.8 134 172.5C148 166.2 158.3 156.7 165 144C174.3 127.3 179 110.3 179 93C179 78.3 176.2 65.2 170.5 53.5C164.8 41.8 156.3 33 145 27C93.7 -0.3 53.3 -13.7 24 -13C41.3 -2.3 51.3 11 54 27C55.3 39 52.5 51.5 45.5 64.5C38.5 77.5 29.3 86.3 18 91C12 93.7 5.3 95 -2 95C-16.7 95 -31 89 -45 77C-56.3 67 -62 54.3 -62 39C-62 29.7 -59.3 19.7 -54 9V8C-42.7 -13.3 -24.7 -26.3 0 -31C10 -33 20.3 -34 31 -34C68.3 -34 110.3 -20.7 157 6C172.3 14 184 25.8 192 41.5C200 57.2 204 74.3 204 93C204 114.3 198.3 135.3 187 156C179.7 168.7 168.8 178.7 154.5 186C140.2 193.3 121.3 200.3 98 207C52.7 219 30 236 30 258C29.3 273.3 31.7 285 37 293C42.3 301 50.3 305 61 305C63.7 305 68.3 304.3 75 303L166 279C170 277.7 175.7 277 183 277C193.7 264.3 205.3 251.7 218 239C277.3 181 346.7 135.5 426 102.5C505.3 69.5 588.3 53 675 53C691.7 53 704 53.3 712 54C744.7 56 776.7 61 808 69C874.7 85 933.7 110.3 985 145C1002.3 157 1015.3 166.3 1024 173L1072 206C1097.3 223.3 1128 242.7 1164 264C1200 285.3 1229.7 301 1253 311C1273.7 320.3 1296 328 1320 334C1378 274 1444.3 219 1519 169C1547 149.7 1580 130 1618 110C1613.3 82 1601.2 58.7 1581.5 40C1561.8 21.3 1538.3 12 1511 12C1497 12 1485 13.3 1475 16C1485.7 20.7 1494.3 27.8 1501 37.5C1507.7 47.2 1511 58 1511 70C1511 86 1505.3 99.7 1494 111C1482.7 122.3 1469.3 128 1454 128C1438 128 1424.3 122.3 1413 111C1401.7 99.7 1396 86 1396 70C1396 45.3 1407.2 25.5 1429.5 10.5C1451.8 -4.5 1479 -12 1511 -12C1542.3 -12 1569.7 -1.3 1593 20C1617 42 1632 68.7 1638 100C1720.7 60 1812 28 1912 4C1993.3 -15.3 2079.3 -25 2170 -25C2213.3 -25 2257 -23 2301 -19C2305 -30.3 2311.8 -39.7 2321.5 -47C2331.2 -54.3 2342.3 -58 2355 -58C2373 -58 2387 -52.3 2397 -41C2407.7 -29 2413 -15.3 2413 0C2413 16 2407.3 29.7 2396 41C2384.7 52.3 2371 58 2355 58C2345.7 58 2336.3 55.3 2327 50C2309.7 39.3 2300 24.7 2298 6C2249.3 1.3 2207.3 -1 2172 -1C2154 -1 2140.3 -0.7 2131 0C1995.7 2.7 1857.3 33.3 1716 92C1687.3 103.3 1662.7 114.7 1642 126C1643.3 150.7 1641 175.3 1635 200C1621 245.3 1594.7 283.2 1556 313.5C1517.3 343.8 1472.7 362 1422 368C1410 369.3 1400.7 370 1394 370C1381.3 370 1367.3 369 1352 367C1345.3 366.3 1337 364.7 1327 362C1284.3 406.7 1246 455 1212 507C1213.3 525.7 1214 539.3 1214 548C1214 594 1206.7 638.7 1192 682C1177.3 725.3 1156 764.7 1128 800C1108 825.3 1085.3 847.7 1060 867C1046.7 923 1038.7 980.3 1036 1039C1082 1019 1125.3 990.2 1166 952.5C1206.7 914.8 1250 866.7 1296 808C1362 720.7 1411 657 1443 617C1490.3 556.3 1539 497.3 1589 440C1639 382.7 1676.3 345.3 1701 328C1777 272 1860.3 229.7 1951 201C2041.7 172.3 2133.7 158 2227 158L2259 159C2355 162.3 2453.5 178.2 2554.5 206.5C2655.5 234.8 2753.7 273.7 2849 323C2951.7 375.7 3053.3 442 3154 522C3168 438.7 3181.7 380.7 3195 348C3210.3 308 3225.7 274 3241 246C3121 169.3 2991.7 116.7 2853 88C2848.3 98.7 2841.3 107.3 2832 114C2822.7 120.7 2812 124 2800 124C2784 124 2770.3 118.5 2759 107.5C2747.7 96.5 2742 83 2742 67C2742 51 2747.7 37.3 2759 26C2770.3 14.7 2784 9 2800 9C2815.3 9 2828.5 14.3 2839.5 25C2850.5 35.7 2856.3 48.7 2857 64C2999.7 92.7 3131.7 145.7 3253 223C3277 181 3301 149.7 3325 129C3355 103 3389.7 81.3 3429 64C3468.3 46.7 3510.3 36 3555 32C3562.3 31.3 3573 31 3587 31C3627 31 3665.5 37 3702.5 49C3739.5 61 3773.3 78.7 3804 102C3877.3 156.7 3926.3 226 3951 310C3962.3 346 3968 385 3968 427C3968 493.7 3952 555.3 3920 612C3896.7 652 3867.2 685.3 3831.5 712ZM855 3609C879 3673 913 3734.3 957 3793C1094.3 3865 1217.7 3956.3 1327 4067C1336.3 4061 1346 4058 1356 4058C1370.7 4058 1383.3 4063.3 1394 4074C1404 4084 1409 4096.3 1409 4111V4118C1477 4142 1545.3 4156 1614 4160C1623.3 4160.7 1637.7 4161 1657 4161C1809 4161 1957.7 4115.3 2103 4024C2181.7 3973.3 2252 3911 2314 3837C2272.7 3865 2227.3 3879 2178 3879C2148.7 3879 2123.5 3871.7 2102.5 3857C2081.5 3842.3 2071 3823.7 2071 3801C2071 3791 2073.3 3782.3 2078 3775C2082.7 3766.3 2089.2 3759.7 2097.5 3755C2105.8 3750.3 2114.7 3748 2124 3748C2138.7 3748 2151.3 3753.2 2162 3763.5C2172.7 3773.8 2178 3786.3 2178 3801C2178 3811.7 2174.8 3821.5 2168.5 3830.5C2162.2 3839.5 2154 3846 2144 3850C2152.7 3852.7 2164 3854 2178 3854C2284 3854 2374 3780 2448 3632L2453 3621C2423.7 3605 2394.7 3588 2366 3570C2321.3 3542 2273 3509.3 2221 3472C2216.3 3480 2208.7 3491.3 2198 3506C2178 3589.3 2144.2 3664.3 2096.5 3731C2048.8 3797.7 1988.3 3850.2 1915 3888.5C1841.7 3926.8 1759 3946 1667 3946C1534.3 3946 1424 3915.3 1336 3854C1238.7 3826 1143 3777 1049 3707C986.3 3659 923.3 3617 860 3581L842 3571C846 3585 850.3 3597.7 855 3609ZM997 3841C1036.3 3887 1085.7 3932 1145 3976C1199.7 4016 1252.7 4048.7 1304 4074C1211.3 3983.3 1109 3905.7 997 3841ZM1523 3880C1487 3880 1451 3877 1415 3871C1487 3904.3 1571 3921 1667 3921C1736.3 3921 1800.7 3909 1860 3885C1929.3 3857.7 1989.7 3815.5 2041 3758.5C2092.3 3701.5 2131 3634.7 2157 3558C2082.3 3647.3 1994.7 3720.3 1894 3777C1770.7 3845.7 1647 3880 1523 3880ZM276 3671C276 3711 286.7 3744.7 308 3772C344 3819.3 387 3843.3 437 3844C461.7 3844 483.5 3838.7 502.5 3828C521.5 3817.3 540.7 3800.3 560 3777C576.7 3756.3 590.3 3742 601 3734C620.3 3718 643.3 3706.7 670 3700C541.3 3662 411 3640.7 279 3636C277 3648 276 3659.7 276 3671ZM638.5 3482.5C582.8 3465.5 533 3457 489 3457C440.3 3457 398 3469.7 362 3495C326 3520.3 300.3 3557 285 3605L283 3611C445.7 3617 603.3 3648 756 3704L767 3707L786 3715C830.7 3732.3 872 3750.3 910 3769C865.3 3702.3 832.7 3630.7 812 3554C752 3523.3 694.2 3499.5 638.5 3482.5ZM2507 3560H2511C2553.7 3560.7 2593.3 3557.7 2630 3551C2666.7 3544.3 2707.3 3532.7 2752 3516L2765 3511C2766.3 3456.3 2767 3417.3 2767 3394V3355C2751 3352.3 2737.7 3344.7 2727 3332C2716.3 3319.3 2711 3305 2711 3289C2711 3273.7 2715.7 3260 2725 3248C2734.3 3236 2746.3 3228 2761 3224C2751.7 3134.7 2735 3043.7 2711 2951C2682.3 2841 2648.3 2737.8 2609 2641.5C2569.7 2545.2 2520 2439.3 2460 2324C2452.7 2324 2447.3 2323.7 2444 2323C2428.7 2321 2411.7 2316.7 2393 2310C2436.3 2385.3 2474.7 2472 2508 2570C2534 2647.3 2554.5 2729.8 2569.5 2817.5C2584.5 2905.2 2592 2994 2592 3084C2592 3258 2563.7 3416.7 2507 3560ZM2392 3541.5C2418.7 3550.5 2448.3 3556.3 2481 3559C2537.7 3419 2566 3261.7 2566 3087C2566 3058.3 2565.7 3036.7 2565 3022C2559.7 2886 2537.8 2754.5 2499.5 2627.5C2461.2 2500.5 2407.3 2382.3 2338 2273C2324.7 2258.3 2315 2243.3 2309 2228L2279 2186L2275 2180C2226.3 2186.7 2175.3 2190 2122 2190L2154 2242C2234.7 2378.7 2288 2485.3 2314 2562C2332.7 2616 2348.2 2672.5 2360.5 2731.5C2372.8 2790.5 2380 2847 2382 2901L2383 2935C2383 3039.7 2366 3144 2332 3248C2306.7 3321.3 2273.7 3390.3 2233 3455C2262.3 3477.7 2288.7 3495 2312 3507C2338.7 3521 2365.3 3532.5 2392 3541.5ZM2735 2947C2761 3046.3 2777.7 3138 2785 3222C2801.7 3224 2815.7 3231.3 2827 3244C2838.3 3256.7 2844 3271.7 2844 3289C2844 3301 2841 3312.3 2835 3323C2824.3 3339.7 2810 3350 2792 3354C2792 3417.3 2791.3 3466.7 2790 3502C2821.3 3489.3 2850.5 3476.5 2877.5 3463.5C2904.5 3450.5 2939.7 3432.7 2983 3410L3032 3384C3024 3366.7 3009 3329.7 2987 3273C2947.7 3172.3 2909.7 3070.3 2873 2967C2868.3 2951 2862.3 2934 2855 2916C2777 2699.3 2672 2498.7 2540 2314C2520 2320 2502.3 2323.3 2487 2324C2546.3 2437.3 2595.5 2542.3 2634.5 2639C2673.5 2735.7 2707 2838.3 2735 2947ZM1523 3459C1560.3 3459 1596.3 3455 1631 3447C1627.7 3412.3 1616.3 3380.5 1597 3351.5C1577.7 3322.5 1552.7 3299.5 1522 3282.5C1491.3 3265.5 1458 3257 1422 3257C1382 3257 1344.7 3268 1310 3290C1275.3 3312 1248 3343 1228 3383L1276 3402C1305.3 3413.3 1338.2 3424.3 1374.5 3435C1410.8 3445.7 1441.7 3452.7 1467 3456C1485.7 3458 1504.3 3459 1523 3459ZM934 2990 923 2989C912.3 3006.3 904.7 3019.7 900 3029C860.7 3101.7 834.3 3182 821 3270C937 3280 1054.7 3310 1174 3360L1207 3374C1229 3330 1258.5 3295.3 1295.5 3270C1332.5 3244.7 1374.7 3232 1422 3232C1462 3232 1499 3241.2 1533 3259.5C1567 3277.8 1595 3303 1617 3335C1639 3367 1652 3402.3 1656 3441C1701.3 3428.3 1744.7 3409.7 1786 3385C1827.3 3360.3 1865 3330.7 1899 3296C1984.3 3208.7 2046.3 3100 2085 2970C2051.7 2920.7 2014 2878.7 1972 2844C1933.3 2958 1870.3 3051.3 1783 3124C1765.7 3138 1751 3150.5 1739 3161.5C1727 3172.5 1714 3185.3 1700 3200C1671.3 3230.7 1657 3260.3 1657 3289H1632C1611.3 3221.7 1576.7 3160 1528 3104C1466.7 3034.7 1390.7 2981.3 1300 2944C1290 2948 1277.7 2952.3 1263 2957C1177 2983 1096 2996 1020 2996C992 2996 963.3 2994 934 2990ZM3211.5 377.5C3199.8 411.8 3189.7 455.7 3181 509L3176 539C3221.3 577 3264.3 615.7 3305 655C3362.3 711 3414.8 771.7 3462.5 837C3510.2 902.3 3549.7 968.3 3581 1035C3609 1093.7 3630.5 1155.7 3645.5 1221C3660.5 1286.3 3668 1352 3668 1418C3668 1440.7 3667 1463 3665 1485C3657 1575.7 3633.7 1668.3 3595 1763C3565.7 1834.3 3524.7 1921.3 3472 2024C3452.7 2060.7 3431.3 2103.7 3408 2153C3360.7 2249.7 3326 2340.3 3304 2425C3285.3 2497.7 3276 2572 3276 2648C3276 2698.7 3280.7 2751 3290 2805C3301.3 2867 3320.8 2926.8 3348.5 2984.5C3376.2 3042.2 3411 3094 3453 3140C3477 3166 3503.7 3187.7 3533 3205C3562.3 3222.3 3591 3233.7 3619 3239C3634.3 3242.3 3652 3244 3672 3244C3710.7 3244 3742.3 3236.3 3767 3221C3787 3209 3802.7 3193.5 3814 3174.5C3825.3 3155.5 3831 3134.3 3831 3111C3831 3095.7 3829.3 3079.7 3826 3063C3826 3064.3 3824.3 3068 3821 3074C3818.3 3079.3 3814.7 3084.3 3810 3089H3811C3811 3111 3803.3 3129.7 3788 3145C3772.7 3160.3 3754 3168 3732 3168H3731C3661.7 3168 3597.3 3149.3 3538 3112C3476 3072.7 3427.8 3019.3 3393.5 2952C3359.2 2884.7 3342 2812 3342 2734C3342 2683.3 3351.7 2631 3371 2577C3383.7 2541 3395.3 2510.2 3406 2484.5C3416.7 2458.8 3431 2428.3 3449 2393C3465 2360.3 3480.2 2331 3494.5 2305C3508.8 2279 3525.3 2249.7 3544 2217C3704.7 1931.7 3793 1666.7 3809 1422C3811 1392 3812 1361.7 3812 1331C3812 1261 3807 1192 3797 1124C3792.3 1123.3 3785.7 1123 3777 1123C3762.3 1123 3750 1124.3 3740 1127C3751.3 1131.7 3760.3 1138.8 3767 1148.5C3773.7 1158.2 3777 1169 3777 1181C3777 1197 3771.3 1210.7 3760 1222C3748.7 1233.3 3735 1239 3719 1239C3703 1239 3689.3 1233.3 3678 1222C3666.7 1210.7 3661 1197 3661 1181C3661 1156.3 3672.2 1136.5 3694.5 1121.5C3716.8 1106.5 3744.3 1099 3777 1099C3784.3 1099 3789.7 1099.3 3793 1100C3775 995.3 3746.3 897 3707 805C3705 800.3 3699.3 787.7 3690 767C3678 768.3 3669 769 3663 769L3644 768C3589.3 764 3540.5 744.7 3497.5 710C3454.5 675.3 3425 631.3 3409 578C3401 553.3 3397 528.3 3397 503C3397 463 3406 425.7 3424 391C3402.7 370.3 3378 348.3 3350 325C3318.7 299.7 3289.3 278 3262 260C3240 304 3223.2 343.2 3211.5 377.5ZM897 2985C856.3 2979 815.3 2970.3 774 2959C780 2983.7 786.7 3019.3 794 3066C800 3106.7 804.7 3153 808 3205C827.3 3125 857 3051.7 897 2985ZM3561 3096C3521.7 3055.3 3493.3 2998.7 3476 2926C3468 2892 3464 2855.7 3464 2817C3464 2750.3 3475.7 2683.7 3499 2617C3513.7 2575 3602.7 2411.7 3766 2127C3894.7 1903 3968.3 1690.3 3987 1489C3988.3 1476.3 3989 1458 3989 1434C3989 1390.7 3984.7 1350.7 3976 1314C3964.7 1266.7 3945.5 1226.5 3918.5 1193.5C3891.5 1160.5 3859 1139 3821 1129C3831 1198.3 3836 1268.3 3836 1339C3836 1375.7 3835.3 1403.3 3834 1422C3818 1672.7 3728.7 1941.3 3566 2228C3537.3 2278 3506 2335.7 3472 2401C3454.7 2434.3 3440.8 2463.3 3430.5 2488C3420.2 2512.7 3408.7 2543.7 3396 2581C3376 2641 3366 2693 3366 2737C3366 2791 3375.8 2843.5 3395.5 2894.5C3415.2 2945.5 3442.3 2990 3477 3028C3501.7 3056 3529.7 3078.7 3561 3096ZM1023.5 2865C1023.2 2865 1023 2864.7 1023 2864C992.3 2894.7 964 2928.7 938 2966C964 2968.7 992.3 2970 1023 2970C1059.7 2970 1095 2968 1129 2964C1173 2958.7 1218.7 2947.7 1266 2931C1228.7 2917.7 1190.7 2907.7 1152 2901C1106 2896.3 1063.3 2884.3 1024 2865ZM2013 2592C2013 2672 2002 2747.3 1980 2818C2021.3 2852 2059 2892.3 2093 2939C2099 2914.3 2103.7 2893.7 2107 2877C2120.3 2809.7 2127 2738.7 2127 2664C2127 2505.3 2095 2346 2031 2186C1993 2182.7 1955 2177.7 1917 2171C1956.3 2261 1984 2352 2000 2444C2008.7 2498 2013 2547.3 2013 2592ZM701 2810.5C683.7 2775.5 664 2747 642 2725C597.3 2679 541 2656 473 2656C460.3 2656 451 2656.3 445 2657C420.3 2659 394.7 2666 368 2678C456 2780.7 566.3 2857.7 699 2909C703.7 2911 718.3 2916.3 743 2925C732.3 2883.7 718.3 2845.5 701 2810.5ZM1771 2728C1712.3 2707.3 1650 2693 1584 2685C1566 2729 1542.3 2766.7 1513 2798C1472.3 2842 1426.7 2878.3 1376 2907C1389.3 2908.3 1407 2909 1429 2909C1455 2908.3 1483.3 2905.2 1514 2899.5C1544.7 2893.8 1571.7 2886 1595 2876C1630.3 2860.7 1663.2 2840.3 1693.5 2815C1723.8 2789.7 1749.7 2760.7 1771 2728ZM1276 2897 1332 2903C1373.3 2883 1410.7 2859.3 1444 2832C1409.3 2854.7 1370.7 2872.3 1328 2885C1312 2889.7 1294.7 2893.7 1276 2897ZM1551 2682C1523.7 2680 1495.7 2679 1467 2679C1407 2679 1348.3 2687.5 1291 2704.5C1233.7 2721.5 1181 2745.3 1133 2776C1101 2796 1070.3 2819.7 1041 2847C1078.3 2863.7 1118 2873.7 1160 2877C1162 2877 1163.3 2877.3 1164 2878C1171.3 2878.7 1182.7 2879 1198 2879C1257.3 2879 1313.7 2867.7 1367 2845C1407.7 2827.7 1443.8 2805.2 1475.5 2777.5C1507.2 2749.8 1532.3 2718 1551 2682ZM1613 2270C1619 2272 1625 2274.7 1631 2278L1633 2279C1641.7 2283.7 1649.7 2290.3 1657 2299C1671 2315 1681.8 2335.7 1689.5 2361C1697.2 2386.3 1701 2414 1701 2444C1701 2468.7 1692.7 2490.5 1676 2509.5C1659.3 2528.5 1638.3 2541.3 1613 2548C1611 2587.3 1604 2625 1592 2661C1662 2670.3 1726.3 2685.7 1785 2707L1788 2702C1831.3 2626 1857.7 2540 1867 2444C1869 2421.3 1870 2398.7 1870 2376C1870 2301.3 1860 2227.3 1840 2154L1832 2152C1755.3 2130.7 1683.7 2103.7 1617 2071C1615.7 2106.3 1615 2137 1615 2163C1615 2189 1614.7 2210.7 1614 2228C1613.3 2238 1613 2252 1613 2270ZM1468 2485.5C1501.3 2505.2 1538 2515 1578 2515H1588V2444C1563.3 2444 1542.3 2435.3 1525 2418C1507.7 2400.7 1499 2380 1499 2356C1499 2331.3 1507.7 2310.3 1525 2293C1542.3 2275.7 1563.3 2267 1588 2267C1588.7 2257 1589 2241 1589 2219C1589 2185 1589.7 2144.7 1591 2098L1592 2058C1585.3 2054.7 1575.3 2049 1562 2041C1508.7 2065.7 1465 2095 1431 2129C1409 2151 1391.7 2176.5 1379 2205.5C1366.3 2234.5 1360 2264.7 1360 2296C1360 2335.3 1369.7 2371.8 1389 2405.5C1408.3 2439.2 1434.7 2465.8 1468 2485.5ZM1648.5 2419.5C1638.2 2429.2 1626.3 2436 1613 2440V2511L1626 2507C1641.3 2501 1653.7 2492.5 1663 2481.5C1672.3 2470.5 1677 2458 1677 2444C1677 2423.3 1675 2404 1671 2386C1666.3 2398.7 1658.8 2409.8 1648.5 2419.5ZM2800 2418C2782.7 2418 2768 2412 2756 2400C2743.3 2387.3 2737 2372.7 2737 2356C2737 2338.7 2743.2 2323.8 2755.5 2311.5C2767.8 2299.2 2782.7 2293 2800 2293C2812 2293 2822.3 2296 2831 2302C2840.3 2307.3 2847.8 2314.8 2853.5 2324.5C2859.2 2334.2 2862 2344.7 2862 2356C2862 2372.7 2855.8 2387.2 2843.5 2399.5C2831.2 2411.8 2816.7 2418 2800 2418ZM2435 2177C2432.3 2177.7 2428 2178 2422 2178C2403.3 2178 2385.7 2173 2369 2163L2323 2172V2178C2323 2189.3 2324.3 2199 2327 2207C2336.3 2219.7 2349.7 2239.3 2367 2266C2396.3 2288.7 2430 2300 2468 2300C2490 2300 2509 2297.3 2525 2292C2499 2256.7 2469 2218.3 2435 2177ZM2619 2232.5C2639.7 2210.2 2656.3 2184.3 2669 2155C2685.7 2114.3 2694 2072.7 2694 2030C2637.3 2066 2576.3 2096 2511 2120C2500.3 2142.7 2483.7 2159.3 2461 2170C2495.7 2212.7 2525 2250.3 2549 2283C2575 2271.7 2598.3 2254.8 2619 2232.5ZM711 2227C711 2234.3 707.7 2243 701 2253C691 2265.7 678 2272 662 2272C657.3 2272 650.3 2270.7 641 2268C607 2256.7 582.7 2251 568 2251C552.7 2251 528 2256.7 494 2268C484.7 2270.7 477.3 2272 472 2272C455.3 2272 442.7 2265.7 434 2253C428 2244.3 425 2235.7 425 2227C425 2217.7 428.2 2207.5 434.5 2196.5C440.8 2185.5 451 2171 465 2153C483.7 2129.7 493 2109.3 493 2092C493 2070.7 487 2052.3 475 2037C461.7 2020.3 446.3 2012 429 2012C379.7 2012 343.7 2021.3 321 2040C332.3 2040.7 341.8 2044.7 349.5 2052C357.2 2059.3 361 2069.3 361 2082C361 2100 354 2112.3 340 2119C332 2122.3 325 2124 319 2124C307.7 2124 297.8 2120.2 289.5 2112.5C281.2 2104.8 277 2094.7 277 2082V2081C277 2052.3 291.5 2029.7 320.5 2013C349.5 1996.3 385.7 1988 429 1988C445.7 1988 461 1993 475 2003C488.3 2012.3 498.7 2024.8 506 2040.5C513.3 2056.2 517 2073.3 517 2092C517 2113.3 504.3 2139.3 479 2170C469 2182 461 2193.3 455 2204C451 2210 449 2216.3 449 2223C449 2232.3 452 2240.5 458 2247.5C464 2254.5 470.3 2258 477 2258C483.7 2258 490.7 2254.5 498 2247.5C505.3 2240.5 513.3 2231 522 2219C542 2191 557 2177 567 2177C577.7 2177 590.7 2187.7 606 2209C620.7 2230.3 633.3 2245 644 2253C648.7 2256.3 653 2258 657 2258C666.3 2258 675.3 2250.7 684 2236C686 2232 687 2228.3 687 2225C687 2212.3 676.7 2194 656 2170C643.3 2154.7 633.8 2141 627.5 2129C621.2 2117 618 2104.7 618 2092C618 2072 621.7 2055 629 2041C636.3 2023.7 646.7 2011 660 2003C674.7 1993 690 1988 706 1988C749.3 1988 785.3 1996.3 814 2013C842.7 2029.7 857 2052.3 857 2081V2082C857 2099.3 850.3 2111.7 837 2119C829 2122.3 822 2124 816 2124C804.7 2124 794.8 2120.2 786.5 2112.5C778.2 2104.8 774 2094.7 774 2082C774 2064.7 781 2052.3 795 2045C801.7 2041.7 807.7 2040 813 2040C807.7 2036 800.7 2031.7 792 2027C769.3 2017 740.7 2012 706 2012C694 2012 683 2016 673 2024C663 2031.3 655.3 2041 650 2053C644.7 2065 642 2078 642 2092C642 2108 651.7 2128.3 671 2153C685 2171 695.2 2185.5 701.5 2196.5C707.8 2207.5 711 2217.7 711 2227ZM2257 2157C2205.7 2091.7 2149.7 2027.3 2089 1964C2070.3 1944.7 2051.7 1924 2033 1902C2017 1908.7 1997.3 1916.3 1974 1925C1956 1931 1945.3 1934.7 1942 1936L1945 1940C2001.7 2014.7 2055 2089.7 2105 2165H2133C2171.7 2165 2213 2162.3 2257 2157ZM1905 2144C1947.7 2152 1986.3 2157.7 2021 2161C1991 2090.3 1953.7 2018.7 1909 1946C1885.7 1953.3 1853.7 1961.7 1813 1971C1846.3 2027 1877 2084.7 1905 2144ZM2311 2084C2314.3 2072 2318.7 2061 2324 2051C2282 2008.3 2245.3 1972.3 2214 1943L2123 1857L2077 1883L2057 1892L2111 1952C2143 1986.7 2174.3 2021.3 2205 2056C2235.7 2090.7 2262.7 2123 2286 2153L2300 2151C2300.7 2129 2304.3 2106.7 2311 2084ZM2328 2112C2326.7 2119.3 2325.3 2131 2324 2147L2346 2142C2338 2133.3 2332 2123.3 2328 2112ZM1618 2044C1686 2079.3 1757.7 2107 1833 2127C1818.3 2079 1799.7 2030 1777 1980L1768 1982C1702 1996.7 1652.3 2009.3 1619 2020C1618.3 2025.3 1618 2033.3 1618 2044ZM2519 2080C2519 2085.3 2518.7 2089 2518 2091C2566 2072.3 2612.3 2050.3 2657 2025C2673 2015.7 2685 2008.3 2693 2003C2690.3 1971.7 2683.7 1940.7 2673 1910C2663 1879.3 2651.3 1852 2638 1828C2624.7 1804 2607 1779.3 2585 1754C2565 1732 2555.7 1721.7 2557 1723C2529.7 1738.3 2502.3 1750.7 2475 1760C2417.7 1780 2357 1790 2293 1790C2263 1790 2234.3 1788 2207 1784L2189 1805C2179.7 1815.7 2164.7 1828.3 2144 1843L2230 1924C2264 1955.3 2299.7 1990.7 2337 2030C2337 2029.3 2337.7 2028.3 2339 2027C2354.3 2004.3 2374.7 1990 2400 1984C2409.3 1982.7 2416.3 1982 2421 1982H2422C2448.7 1982 2471.7 1991.7 2491 2011C2509.7 2029.7 2519 2052.7 2519 2080ZM1593 2031 1594 2028 1592 2029H1591.5C1591.2 2029 1591 2029.3 1591 2030ZM2657 1778.5C2673.7 1805.5 2688.3 1835.3 2701 1868C2715 1905.3 2724 1942.3 2728 1979C2788 1937 2842.7 1888.8 2892 1834.5C2941.3 1780.2 2983.3 1722.3 3018 1661C3052.7 1599 3079.2 1532.7 3097.5 1462C3115.8 1391.3 3125 1319.3 3125 1246C3125 1219.3 3123.3 1189.3 3120 1156C3110.7 1067.3 3086.5 983.3 3047.5 904C3008.5 824.7 2959 757 2899 701C2846.3 651 2785.7 612.2 2717 584.5C2648.3 556.8 2577.7 543 2505 543C2484.3 543 2464 544 2444 546C2413.3 548.7 2379.3 557 2342 571C2304.7 585 2271.2 600.3 2241.5 617C2211.8 633.7 2179.7 655.7 2145 683C2105 714.3 2072.7 740.8 2048 762.5C2023.3 784.2 1993.7 812.7 1959 848C1946.3 860.7 1932 875.7 1916 893C1913.3 902.3 1911.3 911.3 1910 920C1908 934 1907 947 1907 959C1907 994.3 1915.2 1022.8 1931.5 1044.5C1947.8 1066.2 1970.7 1077 2000 1077V1076C2017.3 1076 2031.7 1074.7 2043 1072C2030.3 1066.7 2020 1058.5 2012 1047.5C2004 1036.5 2000 1024 2000 1010C2000 991.3 2006.5 975.5 2019.5 962.5C2032.5 949.5 2048.3 943 2067 943C2085 943 2100.5 949.5 2113.5 962.5C2126.5 975.5 2133 991.3 2133 1010V1011C2133 1017 2132 1023 2130 1029C2124 1051 2108.8 1068.5 2084.5 1081.5C2060.2 1094.5 2032 1101 2000 1101C1970.7 1101 1946 1091 1926 1071C1906 1051 1893.3 1025 1888 993C1886 982.3 1885 970 1885 956C1885 949.3 1885.7 938 1887 922L1869 942C1849.7 961.3 1823.3 989.7 1790 1027C1889.3 1118.3 1981.8 1199.5 2067.5 1270.5C2153.2 1341.5 2239.3 1407.7 2326 1469C2374 1502.3 2413.7 1531.7 2445 1557C2476.3 1582.3 2510.3 1612.7 2547 1648C2559 1659.3 2570 1670.3 2580 1681C2624 1649 2658.5 1610.7 2683.5 1566C2708.5 1521.3 2721 1473.3 2721 1422V1355C2708.3 1353 2696.7 1346.7 2686 1336C2672.7 1322.7 2666 1307 2666 1289C2666 1271 2672.7 1255.3 2686 1242C2688.7 1239.3 2690.7 1237.7 2692 1237L2685 1228C2669.7 1209.3 2655.3 1193.3 2642 1180C2628.7 1166.7 2611.7 1151.3 2591 1134C2593.7 1140 2595 1147.3 2595 1156C2595 1170 2591.7 1182.7 2585 1194C2577.7 1205.3 2568.3 1214.3 2557 1221C2545.7 1227.7 2533.3 1231 2520 1231C2505.3 1231 2492.7 1227.7 2482 1221C2470 1214.3 2460.7 1205.3 2454 1194C2447.3 1182.7 2444 1170 2444 1156C2444 1143.3 2447.2 1131.3 2453.5 1120C2459.8 1108.7 2468.3 1099.3 2479 1092H2478C2464 1097.3 2450.2 1105.8 2436.5 1117.5C2422.8 1129.2 2411 1143.3 2401 1160C2391 1176 2383 1195.5 2377 1218.5C2371 1241.5 2368 1265 2368 1289C2368 1299 2369.3 1308 2372 1316C2375.3 1308 2380.7 1301.5 2388 1296.5C2395.3 1291.5 2403.3 1289 2412 1289C2424 1289 2434.5 1293.3 2443.5 1302C2452.5 1310.7 2457 1321.3 2457 1334C2457 1346 2452.5 1356.3 2443.5 1365C2434.5 1373.7 2424 1378 2412 1378H2411C2391.7 1378 2375.5 1369.3 2362.5 1352C2349.5 1334.7 2343 1313.7 2343 1289C2343 1253 2348.7 1218.7 2360 1186C2380.7 1126.7 2415.7 1084 2465 1058C2475.7 1052.7 2484 1049.3 2490 1048C2467.3 1029.3 2446.3 1013.3 2427 1000C2413.7 1014.7 2397.3 1022 2378 1022C2359.3 1022 2343.7 1015.7 2331 1003C2317.7 989.7 2311 974 2311 956C2311 946 2313 936.3 2317 927C2284.3 904.3 2260.7 884 2246 866C2235.3 853.3 2226.7 839.3 2220 824C2213.3 808.7 2210 793.3 2210 778C2210 742.7 2217.8 713 2233.5 689C2249.2 665 2270.3 653 2297 653C2313.7 653 2328.3 659.3 2341 672C2353 684 2359 698.7 2359 716C2359 726 2356.3 736.3 2351 747C2337.7 767.7 2319.7 778 2297 778C2283.7 778 2271.7 774.3 2261 767C2250.3 759.7 2242.7 750 2238 738C2235.3 749.3 2234 762.7 2234 778C2234 827.3 2264.3 873 2325 915C2339 897.7 2356.7 889 2378 889C2396 889 2411.5 895.5 2424.5 908.5C2437.5 921.5 2444 937.3 2444 956C2444 964.7 2442.7 972 2440 978C2454.7 986 2475.7 997.3 2503 1012C2499 998 2497 983.3 2497 968C2497 940 2502.8 912 2514.5 884C2526.2 856 2542.3 831.7 2563 811C2583 790.3 2608 773.8 2638 761.5C2668 749.2 2699.7 743 2733 743C2749 743 2763.3 746 2776 752C2790 757.3 2801.2 765.3 2809.5 776C2817.8 786.7 2822 798.7 2822 812V813C2822 825 2817.7 835.3 2809 844C2800.3 852.7 2790 857 2778 857C2765.3 857 2754.7 852.7 2746 844C2737.3 835.3 2733 824.7 2733 812C2733 804.7 2735 797.3 2739 790C2745 780.7 2752 774.7 2760 772C2752.7 769.3 2743.7 768 2733 768C2699 768 2668.3 775.3 2641 790C2589 815.3 2556 858.7 2542 920C2540 931.3 2539 942 2539 952C2539 980 2546 1006 2560 1030V1022C2560 1001.3 2567.5 983.5 2582.5 968.5C2597.5 953.5 2615.3 946 2636 946C2650 946 2662.7 949.3 2674 956C2685.3 962.7 2694.3 971.8 2701 983.5C2707.7 995.2 2711 1008 2711 1022C2711 1042.7 2703.7 1060.3 2689 1075C2674.3 1089.7 2656.7 1097 2636 1097C2630 1097 2625.3 1096.7 2622 1096C2670 1141.3 2704 1183.7 2724 1223C2726 1222.3 2729 1222 2733 1222C2751.7 1222 2767.5 1228.5 2780.5 1241.5C2793.5 1254.5 2800 1270.3 2800 1289C2800 1305 2794.7 1319.2 2784 1331.5C2773.3 1343.8 2760.3 1351.7 2745 1355V1422C2745 1473.3 2733.3 1522.3 2710 1569C2682 1621 2644 1664 2596 1698C2620 1724.7 2640.3 1751.5 2657 1778.5ZM1112 1494C1122.7 1519.3 1131 1538.3 1137 1551C1170.3 1575.7 1206.3 1588 1245 1588C1258.3 1588 1269.3 1586.7 1278 1584C1268.7 1580 1260.8 1573.3 1254.5 1564C1248.2 1554.7 1245 1544.7 1245 1534C1245 1519.3 1250.2 1506.8 1260.5 1496.5C1270.8 1486.2 1283.3 1481 1298 1481C1308.7 1481 1317.7 1483.3 1325 1488C1333 1492.7 1339.3 1499.2 1344 1507.5C1348.7 1515.8 1351 1524.7 1351 1534C1351 1557.3 1340.7 1576.2 1320 1590.5C1299.3 1604.8 1274.3 1612 1245 1612C1214.3 1612 1185 1605.3 1157 1592L1175 1624C1224.3 1709.3 1286.7 1788 1362 1860C1428.7 1772.7 1515 1698 1621 1636L1627 1583C1632.3 1530.3 1639 1482.7 1647 1440C1655 1397.3 1666 1345.7 1680 1285C1696 1213.7 1716.7 1145 1742 1079C1637.3 1187.7 1528 1279.7 1414 1355C1320 1417 1219.3 1463.3 1112 1494ZM2512 1720 2541 1705C2514.3 1677.7 2484 1650.3 2450 1623C2404 1586.3 2352.7 1548.3 2296 1509C2288 1529.7 2277.7 1569.7 2265 1629C2251.7 1689 2238 1731.7 2224 1757L2222 1761C2254 1763.7 2278.3 1765 2295 1765C2373.7 1765 2446 1750 2512 1720ZM1738 1388C1725.3 1334 1720 1278.7 1722 1222C1706 1280.7 1691 1344.3 1677 1413C1666.3 1467 1656.3 1536.3 1647 1621L1756 1567L1791 1548C1767 1494 1749.3 1440.7 1738 1388ZM1812 1535 1814 1534C1812 1530 1808.3 1524 1803 1516ZM1746 1227C1746 1274.3 1753 1323 1767 1373C1781.7 1425 1804.3 1474 1835 1520C1850.3 1508.7 1863 1498.7 1873 1490C1911 1453.3 1930 1411.7 1930 1365C1930 1335 1926.3 1307.5 1919 1282.5C1911.7 1257.5 1897.7 1229 1877 1197C1858.3 1168.3 1841.8 1144.2 1827.5 1124.5C1813.2 1104.8 1796 1083.7 1776 1061C1762.7 1097 1753.3 1136.3 1748 1179C1746.7 1200.3 1746 1216.3 1746 1227ZM863 1504C890.3 1504 921.3 1502.3 956 1499C977.3 1496.3 993.3 1494 1004 1492L1007 1464C1009 1447.3 1010 1413.7 1010 1363V1311H1023C939.7 1310.3 859 1294.5 781 1263.5C703 1232.5 635.7 1190 579 1136C549 1107.3 523 1077 501 1045C502.3 1052.3 501.2 1059.5 497.5 1066.5C493.8 1073.5 488.3 1079 481 1083C477 1085 472.7 1086 468 1086C458.7 1086 450.2 1082.8 442.5 1076.5C434.8 1070.2 431 1061.7 431 1051C431 1047 432.3 1041 435 1033C408.3 1032.3 382.7 1042.3 358 1063C333.3 1083.7 314.3 1110.7 301 1144C296.3 1155.3 294 1167.7 294 1181C294 1199.7 298.7 1217.3 308 1234C323.3 1262 347.7 1283.7 381 1299C408.3 1311 469.3 1318.7 564 1322C609.3 1323.3 632 1338 632 1366C632 1369.3 631.3 1373 630 1377C628.7 1381.7 626.3 1386.2 623 1390.5C619.7 1394.8 615.3 1399.3 610 1404C604.7 1408.7 601.3 1411.7 600 1413C582 1429.7 571.3 1442 568 1450L567 1455C663.7 1487.7 762.3 1504 863 1504ZM1051 1483C1044.3 1471 1038.3 1458 1033 1444L1030 1488ZM1044 1367C1040 1349.7 1037.3 1338 1036 1332C1038 1374.7 1046 1412.7 1060 1446C1064 1458 1069 1468.7 1075 1478L1079 1477C1067 1447.7 1055.3 1411 1044 1367ZM1574.5 1078.5C1541.5 1108.8 1503.3 1139 1460 1169C1400 1210.3 1335.2 1243.5 1265.5 1268.5C1195.8 1293.5 1126.3 1307.3 1057 1310C1067.7 1362 1083 1415.7 1103 1471C1207.7 1442.3 1307.3 1396.3 1402 1333C1465.3 1291 1524.8 1245.8 1580.5 1197.5C1636.2 1149.2 1692.7 1094.7 1750 1034L1738 1021L1683 964C1643.7 1010 1607.5 1048.2 1574.5 1078.5ZM934 899C971.3 889.7 1006.3 873.3 1039 850L1040 846C1068.7 722.7 1117.7 607.7 1187 501C1181 446.3 1164.7 394.7 1138 346C1106 285.3 1061.7 233 1005 189C1001 186.3 996.2 183.2 990.5 179.5C984.8 175.8 978.3 171.3 971 166V165C893 113.7 806.7 85 712 79C703.3 78.3 690 78 672 78C589.3 78 510 93.7 434 125C358 156.3 292 200 236 256C223.3 268.7 214 278.7 208 286C214 290.7 219.2 298.2 223.5 308.5C227.8 318.8 231 330 233 342C237 359.3 240.7 372.7 244 382C248.7 396.7 253.5 407.7 258.5 415C263.5 422.3 270.7 427 280 429C290.7 431 301.3 427.3 312 418C322.7 408.7 328.3 396.3 329 381C329 362.3 323.7 336.3 313 303C308.3 290.3 306 277 306 263C306 249 309 237 315 227C326.3 207 341 191.2 359 179.5C377 167.8 395.7 162 415 162C429.7 162 443.7 165.3 457 172C494.3 193.3 523.8 216.2 545.5 240.5C567.2 264.8 578 289.3 578 314C578 327.3 574.3 340.7 567 354C562.3 364 555.5 371.7 546.5 377C537.5 382.3 528 385 518 385C514.7 385 510.3 384.3 505 383C491.7 378.3 480.7 371.5 472 362.5C463.3 353.5 459 342.3 459 329C459 313.7 464.8 299.8 476.5 287.5C488.2 275.2 501.7 269 517 269C526.3 269 535.3 271.3 544 276C529.3 249.3 496.3 222 445 194C435.7 189.3 425.3 187 414 187C398.7 187 384.2 191.7 370.5 201C356.8 210.3 345.7 223 337 239C331.7 247.7 329 259.3 329 274C329 287.3 331.3 301 336 315C340 326.3 344 339.3 348 354C350 363.3 351 373 351 383C351 410.3 341 429.3 321 440C313.7 444.7 305.7 447 297 447C287.7 447 277 443.7 265 437C250.3 428.3 234.3 413.3 217 392C210.3 383.3 202.2 374.5 192.5 365.5C182.8 356.5 174 350 166 346C165.3 345.3 164.5 345 163.5 345C162.5 345 161.7 344.7 161 344C127 392 99.5 444.2 78.5 500.5C57.5 556.8 44.3 615 39 675C43 675.7 47.7 677.7 53 681C62.3 686.3 69.7 693.7 75 703C80.3 712.3 83 722.7 83 734C83 744.7 80.3 754.7 75 764C66.3 778.7 54 787.7 38 791C42.7 857.7 56 921.8 78 983.5C100 1045.2 129.3 1101.7 166 1153C206.7 1211.7 255.5 1264.7 312.5 1312C369.5 1359.3 431.7 1398 499 1428C499 1425.3 499.3 1423.3 500 1422C506 1409.3 527.7 1403.7 565 1405C578.3 1406.3 589.7 1403.7 599 1397C606.3 1393 610 1385.7 610 1375C610 1366.3 606.3 1358.8 599 1352.5C591.7 1346.2 581 1343 567 1343L555 1344C537.7 1346 520.7 1347 504 1347C456.7 1347 412.7 1338.3 372 1321C345.3 1309.7 323.7 1294.3 307 1275C281.7 1246.3 269 1215.3 269 1182C269 1166 272 1150 278 1134C293.3 1096.7 315.3 1066.5 344 1043.5C372.7 1020.5 402.7 1009 434 1009C450 1009 465.3 1012 480 1018L487 1022C460.3 978.7 439.8 932.7 425.5 884C411.2 835.3 404 785.7 404 735C404 677 413 624.3 431 577C463.7 487.7 516.7 422.3 590 381C635.3 355 683.7 342 735 342C779 342 821.7 352.3 863 373C909 396.3 945.5 429.3 972.5 472C999.5 514.7 1013 562 1013 614C1013 658 1002.8 698.7 982.5 736C962.2 773.3 934.5 802.8 899.5 824.5C864.5 846.2 826.3 857 785 857C755.7 857 729.3 850.3 706 837C720 856.3 738 871.3 760 882C794.7 899.3 831.3 908 870 908C894 908 915.3 905 934 899ZM1011 1049C1013.7 992.3 1020.3 938 1031 886C979.7 916.7 925 932 867 932C843 932 821 929.3 801 924C757.7 912.7 722.5 891.8 695.5 861.5C668.5 831.2 655 796 655 756C655 720 659.3 688 668 660C674 638.7 683 619.3 695 602C704.3 588 716.3 576.8 731 568.5C745.7 560.2 762 556 780 556C793.3 556 806.2 558.5 818.5 563.5C830.8 568.5 841.7 575.7 851 585C870.3 604.3 880 628 880 656C880 683.3 870.2 706.8 850.5 726.5C830.8 746.2 807.3 756 780 756C760.7 756 743.7 751.7 729 743C708.3 731 693.7 713 685 689C681.7 705.7 680 728 680 756C680 778 690 796.2 710 810.5C730 824.8 754 832 782 832C837.3 832 885 812 925 772C947 749.3 963.2 724.7 973.5 698C983.8 671.3 989 644.7 989 618C989 584.7 982 551.7 968 519C938.7 453 889 407.7 819 383C793 373 763 368 729 368C669 368 614.3 386.3 565 423C525 453 494.2 490.8 472.5 536.5C450.8 582.2 440 631 440 683C440 732.3 449.3 779.7 468 825C486.7 870.3 512 910 544 944C572 974 604.7 999.7 642 1021C679.3 1042.3 718.7 1057.7 760 1067C788.7 1073.7 820 1077 854 1077C908.7 1077 961 1067.7 1011 1049ZM3147 567C3131.7 552.3 3116 538.7 3100 526C3035.3 475.3 2965 435.7 2889 407C2813 378.3 2735.7 362.3 2657 359C2647 358.3 2632 358 2612 358C2540 358 2468.7 366.7 2398 384C2327.3 401.3 2259 427.3 2193 462C2119.7 500 2055.2 544.3 1999.5 595C1943.8 645.7 1877.7 720 1801 818L1779 845C1743.7 890.3 1717.3 923 1700 943C1732 973.7 1756 996 1772 1010L1836 942C1864 912 1884 891 1896 879C1906.7 840.3 1923.3 804 1946 770L1965 785C1953 803 1943 821 1935 839C1955 819 1969 805.3 1977 798C2043.7 735.3 2093.7 691.7 2127 667C2187 622.3 2239 589.7 2283 569C2341 541.7 2394.7 525.7 2444 521C2473.3 518.3 2495 517 2509 517C2572.3 517 2636 528.3 2700 551C2782 580.3 2854 623.8 2916 681.5C2978 739.2 3029.3 809.7 3070 893C3091.3 935 3108 979 3120 1025L3121 984C3121 938.7 3122.5 880.7 3125.5 810C3128.5 739.3 3132.3 685 3137 647ZM1070 825C1085.3 811 1098.7 796.3 1110 781C1136 747.7 1155.7 710.7 1169 670C1182.3 629.3 1189 587.3 1189 544C1167.7 579.3 1148.7 615.3 1132 652C1106.7 707.3 1086 765 1070 825ZM3644 743C3659.3 743 3670.7 742.7 3678 742C3623.3 632.7 3556 534 3476 446C3460 460.7 3448.3 479.3 3441 502C3435 518 3432 535.3 3432 554C3432 572.7 3435.3 591.5 3442 610.5C3448.7 629.5 3458.7 647.3 3472 664C3492 689.3 3517 708.8 3547 722.5C3577 736.2 3609.3 743 3644 743ZM3944 423C3944 376.3 3935.7 331.3 3919 288C3878.3 186.7 3808.7 117 3710 79C3668.7 63.7 3626 56 3582 56C3526.7 56 3477 67 3433 89C3396.3 107 3365.5 127.2 3340.5 149.5C3315.5 171.8 3293.3 201 3274 237C3305.3 257.7 3336 280.3 3366 305C3392.7 327 3416.3 348 3437 368C3452.3 343.3 3472.7 323.8 3498 309.5C3523.3 295.2 3550.3 288 3579 288C3609.7 288 3637.7 296 3663 312C3688.3 328 3708.2 349.7 3722.5 377C3736.8 404.3 3744 434.3 3744 467C3744 483.7 3738.3 497.2 3727 507.5C3715.7 517.8 3702.7 523 3688 523C3673.3 523 3660.5 517.8 3649.5 507.5C3638.5 497.2 3633 483.7 3633 467H3632C3632 451.7 3624.5 438.7 3609.5 428C3594.5 417.3 3577.3 412 3558 412C3550 412 3542.3 413 3535 415C3521 419 3508.3 424.3 3497 431C3582.3 525.7 3651 628 3703 738C3758.3 728 3807 701.3 3849 658C3882.3 624 3906.5 586.8 3921.5 546.5C3936.5 506.2 3944 465 3944 423ZM1208 471 1215 460C1243 420.7 1271.7 385.3 1301 354C1277.7 346 1243.7 331.7 1199 311C1182.3 303 1153 286.3 1111 261C1130.3 285.7 1146.7 310.3 1160 335C1183.3 379 1199.3 424.3 1208 471ZM1399 344C1409.7 344 1417.3 343.7 1422 343C1466 337 1504.8 321.2 1538.5 295.5C1572.2 269.8 1596 238 1610 200C1616.7 175.3 1620 154.3 1620 137C1534.7 182.3 1451.7 242.7 1371 318L1348 340C1363.3 342.7 1380.3 344 1399 344ZM2628 72.5C2614 86.2 2597.3 93 2578 93C2558.7 93 2541.7 86.3 2527 73C2513 59 2506 42.3 2506 23C2506 3 2513 -14 2527 -28C2541 -42 2558 -49 2578 -49C2597.3 -49 2614 -42 2628 -28C2642 -14 2649 3 2649 23C2649 42.3 2642 58.8 2628 72.5Z" fill="currentColor"/></g></svg>